<?xml version="1.0" encoding="UTF-8" standalone="no"?>
<!-- Created with Inkscape (http://www.inkscape.org/) -->

<svg
   width="4000"
   height="4000"
   viewBox="0 0 1058.3333 1058.3333"
   version="1.1"
   id="svg5"
   inkscape:version="1.2.2 (b0a84865, 2022-12-01)"
   sodipodi:docname="Metropolitan.svg"
   xmlns:inkscape="http://www.inkscape.org/namespaces/inkscape"
   xmlns:sodipodi="http://sodipodi.sourceforge.net/DTD/sodipodi-0.dtd"
   xmlns="http://www.w3.org/2000/svg"
   xmlns:svg="http://www.w3.org/2000/svg">
  <sodipodi:namedview
     id="namedview7"
     pagecolor="#ffffff"
     bordercolor="#000000"
     borderopacity="0.25"
     inkscape:showpageshadow="2"
     inkscape:pageopacity="0.0"
     inkscape:pagecheckerboard="0"
     inkscape:deskcolor="#d1d1d1"
     inkscape:document-units="mm"
     showgrid="true"
     inkscape:zoom="0.19842987"
     inkscape:cx="1516.9087"
     inkscape:cy="1625.2593"
     inkscape:window-width="1920"
     inkscape:window-height="1027"
     inkscape:window-x="0"
     inkscape:window-y="25"
     inkscape:window-maximized="1"
     inkscape:current-layer="layer12">
    <inkscape:grid
       type="xygrid"
       id="grid66"
       originx="0"
       originy="0" />
  </sodipodi:namedview>
  <defs
     id="defs2">
    <rect
       x="1830"
       y="410"
       width="0"
       height="20"
       id="rect5851" />
    <inkscape:perspective
       sodipodi:type="inkscape:persp3d"
       inkscape:vp_x="0 : 529.16665 : 1"
       inkscape:vp_y="0 : 1000 : 0"
       inkscape:vp_z="1058.3333 : 529.16665 : 1"
       inkscape:persp3d-origin="529.16665 : 352.77777 : 1"
       id="perspective18963" />
    <marker
       style="overflow:visible"
       id="marker21865"
       refX="0"
       refY="0"
       orient="auto"
       inkscape:stockid="Dot"
       markerWidth="5.6666665"
       markerHeight="5.6666665"
       viewBox="0 0 5.6666667 5.6666667"
       inkscape:isstock="true"
       inkscape:collect="always"
       preserveAspectRatio="xMidYMid">
      <path
         transform="scale(0.5)"
         style="fill:context-stroke;fill-rule:evenodd;stroke:context-stroke;stroke-width:1pt"
         d="M 5,0 C 5,2.76 2.76,5 0,5 -2.76,5 -5,2.76 -5,0 c 0,-2.76 2.3,-5 5,-5 2.76,0 5,2.24 5,5 z"
         id="path21863"
         sodipodi:nodetypes="sssss" />
    </marker>
    <linearGradient
       id="linearGradient19944"
       inkscape:swatch="gradient">
      <stop
         style="stop-color:#8fc31f;stop-opacity:1;"
         offset="0"
         id="stop19940" />
      <stop
         style="stop-color:#8fc31f;stop-opacity:0;"
         offset="1"
         id="stop19942" />
    </linearGradient>
    <marker
       style="overflow:visible"
       id="marker5233"
       refX="0"
       refY="0"
       orient="auto"
       inkscape:stockid="Dot"
       markerWidth="5.6666665"
       markerHeight="5.6666665"
       viewBox="0 0 5.6666667 5.6666667"
       inkscape:isstock="true"
       inkscape:collect="always"
       preserveAspectRatio="xMidYMid">
      <path
         transform="scale(0.5)"
         style="fill:context-stroke;fill-rule:evenodd;stroke:context-stroke;stroke-width:1pt"
         d="M 5,0 C 5,2.76 2.76,5 0,5 -2.76,5 -5,2.76 -5,0 c 0,-2.76 2.3,-5 5,-5 2.76,0 5,2.24 5,5 z"
         id="path5231"
         sodipodi:nodetypes="sssss" />
    </marker>
    <marker
       style="overflow:visible"
       id="marker5179"
       refX="0"
       refY="0"
       orient="auto"
       inkscape:stockid="Dot"
       markerWidth="5.6666665"
       markerHeight="5.6666665"
       viewBox="0 0 5.6666667 5.6666667"
       inkscape:isstock="true"
       inkscape:collect="always"
       preserveAspectRatio="xMidYMid">
      <path
         transform="scale(0.5)"
         style="fill:context-stroke;fill-rule:evenodd;stroke:context-stroke;stroke-width:1pt"
         d="M 5,0 C 5,2.76 2.76,5 0,5 -2.76,5 -5,2.76 -5,0 c 0,-2.76 2.3,-5 5,-5 2.76,0 5,2.24 5,5 z"
         id="path5177"
         sodipodi:nodetypes="sssss" />
    </marker>
    <marker
       style="overflow:visible"
       id="Dot"
       refX="0"
       refY="0"
       orient="auto"
       inkscape:stockid="Dot"
       markerWidth="5.6666665"
       markerHeight="5.6666665"
       viewBox="0 0 5.6666667 5.6666667"
       inkscape:isstock="true"
       inkscape:collect="always"
       preserveAspectRatio="xMidYMid">
      <path
         transform="scale(0.5)"
         style="fill:context-stroke;fill-rule:evenodd;stroke:context-stroke;stroke-width:1pt"
         d="M 5,0 C 5,2.76 2.76,5 0,5 -2.76,5 -5,2.76 -5,0 c 0,-2.76 2.3,-5 5,-5 2.76,0 5,2.24 5,5 z"
         id="Dot1"
         sodipodi:nodetypes="sssss" />
    </marker>
  </defs>
  <g
     inkscape:groupmode="layer"
     id="layer17"
     inkscape:label="Liver"
     style="fill:none;stroke-width:1.00013;stroke-dasharray:none">
    <path
       style="fill:none;stroke:#d1f0ff;stroke-width:15.4284;stroke-linecap:round;stroke-linejoin:round;stroke-dasharray:none;stroke-opacity:1"
       d="M -180.78315,111.07031 H 55.692779 L 424.43491,493.55929 h 40.08067 l 72.1452,74.8348 36.0726,37.41739 h 152.30653 l 80.16133,-83.14977 h 64.12907 l 92.18553,91.46475 h 24.0484 l 52.10486,-54.04735 v -83.14978 l 64.1291,-66.51982 h 128.2581 l 51.6198,53.54417"
       id="path7284"
       transform="matrix(0.66012708,0,0,0.63640179,124.63152,109.23132)"
       inkscape:label="Han river"
       sodipodi:nodetypes="cccccccccccccccc" />
    <path
       style="fill:none;stroke:#d1f0ff;stroke-width:3;stroke-linecap:round;stroke-linejoin:round;stroke-dasharray:none;stroke-opacity:1"
       d="m 404.8125,423.33333 -7.9375,10.58334 v 15.875 l 31.75,34.39583 37.04162,-10e-6 10.58333,-10.58333"
       id="path9455"
       sodipodi:nodetypes="cccccc" />
    <path
       style="fill:#000000;fill-opacity:0.197248;stroke:#d1f0ff;stroke-width:5;stroke-linecap:round;stroke-linejoin:round;stroke-dasharray:none;stroke-opacity:1"
       d="m 973.66665,402.16666 84.66665,-89.95833"
       id="path6171" />
    <path
       style="fill:none;fill-opacity:0.197248;stroke:#d1f0ff;stroke-width:5;stroke-linecap:round;stroke-linejoin:round;stroke-dasharray:none;stroke-opacity:1"
       d="m 971.02082,404.81249 31.74998,31.75 v 134.9375 l 55.5625,55.5625"
       id="path8297" />
  </g>
  <g
     inkscape:groupmode="layer"
     id="layer2"
     inkscape:label="Line1"
     style="fill:none;stroke-width:1.00013;stroke-dasharray:none"
     transform="matrix(0.66012707,0,0,0.6364018,124.63152,109.23132)">
    <path
       style="fill:none;stroke:#0052a4;stroke-width:1.07999;stroke-dasharray:none;stroke-opacity:1;marker-start:url(#marker5233);marker-mid:url(#marker5233);marker-end:url(#Dot);paint-order:normal"
       d="m 656.90279,-130.06404 h 36.57361 36.57361 36.57361 36.5736 36.57361 36.57361 36.57361 36.57361 l 28.05647,29.10243 v 36.138173 34.539131 29.1024216 29.1024214 31.980684 29.102422 34.539137 27.82319 29.10242 30.38165 29.10242 33.25991 l -24.04848,24.94494 -28.05646,29.10242 -28.05647,29.10242 c -28.0564,29.10242 -28.0564,29.10242 -40.0806,29.10242 h -32.06461 -36.0726 l -36.07255,1e-5 -32.01494,-0.0289 -36.12219,0.0289 h -40.08067 l -36.0726,37.4174 3e-5,33.2599 v 49.88986 c 0,33.25992 0,33.25992 -12.0242,45.73238 -48.0968,49.88987 -48.0968,49.88987 -96.1936,49.88987 h -40.08067 l -24.0484,-24.94494 -32.06453,33.25991 -28.05647,29.10243 -28.05647,29.10242 c -22.82741,0 -36.07267,19.59481 -36.07267,37.41741 l 7e-5,41.57487 0,45.73238 36.0726,37.4174 36.0726,37.4174 36.0726,37.4174 40.08067,41.57488 36.0726,37.4174 40.08067,41.57485 36.0726,37.4174 36.0726,37.4174 36.0726,37.4174 36.0726,37.4174 56.11293,58.2049"
       id="path6872"
       inkscape:label="Path"
       sodipodi:nodetypes="ccccccccccccccccccccccccccccccccccccccccccsccccccccccccc" />
    <path
       style="fill:none;stroke:#0052a4;stroke-width:1.07999;stroke-dasharray:none;stroke-opacity:1;marker-start:url(#marker5233);marker-mid:url(#marker5179);marker-end:url(#Dot)"
       d="M 344.27351,668.17381 H 314.61382 284.95413 255.29443 225.63474 195.97504 163.91052 131.84599 99.781472 67.716949 35.652427 3.5879042 -28.476618 l -24.048401,24.94493 v 29.10242 l -20.040333,20.78744 h -32.064538"
       id="path21654"
       inkscape:label="GyeongIn"
       sodipodi:nodetypes="ccccccccccccccccc" />
    <path
       style="fill:none;stroke:#0052a4;stroke-width:1.0799871;stroke-linecap:round;stroke-linejoin:round;stroke-opacity:1;stroke-dasharray:none;marker-start:url(#marker5233);marker-mid:url(#marker5179);marker-end:url(#Dot)"
       d="m 312.20905,792.89848 -36.0726,37.4174"
       id="path1199" />
  </g>
  <g
     inkscape:label="Line2"
     inkscape:groupmode="layer"
     id="layer1"
     transform="matrix(0.66012707,0,0,0.6364018,124.63152,109.23132)">
    <path
       style="display:inline;fill:none;fill-opacity:0;stroke:#00a84d;stroke-width:1.07999;stroke-dasharray:none;stroke-opacity:1;marker-start:url(#marker5179);marker-mid:url(#Dot);marker-end:url(#marker5233);paint-order:normal"
       d="m 460.50752,422.88197 h 32.06453 32.06454 28.05646 28.05647 32.06454 32.06453 40.08067 36.0726 28.05646 44.08874 32.06445 c 14.02824,0 20.04041,0 32.06461,12.47247 l 28.05647,29.10242 24.0484,24.94493 24.0484,24.94493 24.0484,24.94494 20.04034,20.78744 32.06457,0 24.0484,24.94493 0,49.88987 -28.0565,29.10242 -28.05647,29.10242 c -12.0242,12.47247 -12.0242,12.47247 -52.10487,12.47247 h -56.11294 -34.06856 -34.06857 -68.13713 l -40.08067,37.41739 h -48.0968 -34.46937 -34.46938 -34.46937 -34.46938 -34.46937 l -24.0484,-24.94493 -24.0484,-24.94493 -24.0484,-24.94493 -24.0484,-24.94494 V 597.4965 555.92161 510.18923 l 20.04033,-20.78744 32.06454,-33.25991 z"
       id="path1224"
       sodipodi:nodetypes="ccccccccccccccccccccccccccccccccccccccccccccc"
       inkscape:label="Path" />
    <path
       style="fill:none;fill-opacity:0;stroke:#00a84d;stroke-width:1.07999;stroke-dasharray:none;stroke-opacity:1;marker-start:url(#marker5233);marker-mid:url(#marker5179);marker-end:url(#Dot);paint-order:normal"
       d="m 933.45939,514.34672 c 0,-37.4174 0,-37.4174 -24.0484,-62.36233 l -32.06453,-33.25991 -20.04034,-20.78744 c -7.19471,-7.46294 -20.18369,-8.31498 -32.06461,-8.31498"
       id="path12797"
       sodipodi:nodetypes="cccsc"
       inkscape:label="Seongsu Branch" />
    <path
       style="fill:none;stroke:#00a84d;stroke-width:1.07999;stroke-dasharray:none;stroke-opacity:1;marker-start:url(#marker5233);marker-mid:url(#marker5179);marker-end:url(#Dot)"
       d="m 376.33812,597.4965 -32.06453,-33.25991 h -40.08067 l -32.06454,-33.25991 0,-45.73238"
       id="path26570"
       sodipodi:nodetypes="ccccc"
       inkscape:label="Shinjeong Branch" />
  </g>
  <g
     inkscape:groupmode="layer"
     id="layer4"
     inkscape:label="Line3"
     transform="matrix(0.66012707,0,0,0.6364018,124.63152,109.23132)">
    <path
       style="fill:none;fill-opacity:0;stroke:#ef7c1c;stroke-width:1.07999;stroke-dasharray:none;stroke-opacity:1;marker-start:url(#marker5233);marker-mid:url(#marker5179);marker-end:url(#Dot);paint-order:normal"
       d="m 139.86218,165.11767 h 40.08067 l 24.0484,24.94493 24.0484,24.94493 24.0484,24.94494 24.0484,24.94493 h 40.08067 l 24.0484,-24.94494 28.05647,-29.10242 h 32.06453 32.06453 l 20.04034,20.78745 20.04025,20.78744 32.06461,33.25991 16.03227,16.62996 20.04033,20.78744 20.04034,20.78744 h 32.06453 32.06454 28.05646 l 36.0726,37.4174 v 41.57489 l 32.06454,33.25991 20.04033,20.78744 20.04033,20.78745 24.0484,24.94493 42.0847,43.65363 -26.05243,27.02368 c -28.05647,0 -28.05647,0 -32.06453,4.15749 l -40.08067,41.57489 v 66.51982 58.20484 h 72.1452 34.06857 34.06856 28.05647 28.05647 l 24.0484,24.94493 36.0726,37.4174 36.07264,-37.4174 60.121,-62.36233 24.0484,-24.94493 24.0484,-24.94494"
       id="path9155"
       inkscape:label="Path"
       sodipodi:nodetypes="ccccccccccccccccccccccccccccccccccccccccccc" />
  </g>
  <g
     inkscape:groupmode="layer"
     id="layer5"
     inkscape:label="Line4"
     transform="matrix(0.66012707,0,0,0.6364018,124.63152,109.23132)">
    <path
       style="fill:none;fill-opacity:0;stroke:#00a4e3;stroke-width:1.07999;stroke-dasharray:none;stroke-opacity:1;marker-start:url(#marker5233);marker-mid:url(#marker21865);marker-end:url(#Dot);paint-order:normal"
       d="m 1153.903,123.54278 h -28.0565 -28.0565 -28.0564 -28.0565 -32.0645 -36.07254 l -24.0484,24.94493 -24.0484,24.94493 -24.0484,24.94494 -24.0484,24.94493 -24.0484,24.94493 -28.05647,29.10242 -32.06453,33.25991 -28.05647,29.10242 c -16.03227,16.62996 -16.03227,16.62996 -16.03227,45.73238 v 45.73238 l -24.0484,24.94493 h -40.08066 -36.0726 -36.0726 v 29.10242 41.57489 c 0,24.94493 0,20.78744 8.01613,29.10242 l 20.04033,20.78744 v 54.04736 37.4174 37.4174 37.41739 33.25991 33.25991 29.10243 l -23.38039,23.5591 -23.38039,23.5591 -23.38038,23.5591 -23.38039,23.55911 -23.38039,23.5591 -23.38039,23.5591 -28.05647,29.10244 -32.06453,33.2599 -32.06454,33.2599 -40.08066,0 h -36.0726 l -44.08874,0 -40.08067,-41.5749 H 203.99125 163.91058 131.84605 99.781516 67.716983 35.652449"
       id="path10311"
       inkscape:label="Path"
       sodipodi:nodetypes="ccccccccccccccccccccccccccccccccccccccccccccccccccc" />
  </g>
  <g
     inkscape:groupmode="layer"
     id="layer6"
     inkscape:label="Line5"
     transform="matrix(0.66012707,0,0,0.6364018,124.63152,109.23132)">
    <path
       style="fill:none;fill-opacity:0;stroke:#996cac;stroke-width:1.07999;stroke-dasharray:none;stroke-opacity:1;marker-start:url(#marker5233);marker-mid:url(#marker5179);marker-end:url(#Dot)"
       d="m 191.96705,327.25973 -28.05646,29.10242 7e-5,33.25991 h 40.08059 28.05647 l 20.04033,20.78744 20.04033,20.78745 v 24.94493 24.94493 l 16.03227,16.62996 h 24.0484 24.0484 24.0484 l 16.03227,16.62995 28.05647,29.10242 28.05646,29.10243 24.0484,-24.94494 20.04034,-20.78744 24.0484,-24.94493 24.0484,-24.94494 28.05646,-29.10242 28.05647,-29.10242 24.04833,-24.94493 c 6.65201,-9.0195 12.82605,-14.72909 28.05654,-16.62996 16.04805,-0.0623 52.10487,0 52.10487,0 l 40.08066,41.57489 c 8.01613,8.31498 10.02016,10.39372 18.0363,18.7087 8.01613,8.31497 18.0363,18.7087 18.0363,18.7087 h 36.0726 l 34.06849,10e-6 26.05251,-24.94494 c 8.01614,-8.31498 8.01614,-8.31498 40.0806,-8.31498 h 28.05654 l 20.04033,20.78744 20.04034,20.78745 24.0484,24.94493 h 28.05647 l 44.0887,45.73238 24.0484,24.94493 24.0484,-24.94493 v -29.10243 -29.10242 l 24.0484,-24.94493 h 30.3469 30.9194 30.9193 l 20.613,20.78745 20.0403,20.78744 20.0403,20.78745"
       id="path390"
       sodipodi:nodetypes="ccccccccccccccccccccccccccccccccccccccccccccccccc"
       inkscape:label="Line5 Main" />
    <path
       style="fill:none;fill-opacity:0;stroke:#996cac;stroke-width:1.07999;stroke-dasharray:none;stroke-opacity:1;marker-start:url(#marker5179);marker-mid:url(#marker5179);marker-end:url(#Dot)"
       d="m 1085.7659,560.0791 24.0484,24.94493 v 29.10242 l 0,33.25991 24.0484,24.94494 24.0484,24.94493 24.0484,24.94493 h 32.0646"
       id="path3365"
       sodipodi:nodetypes="cccccccc"
       inkscape:label="Macheon Branch" />
  </g>
  <g
     inkscape:groupmode="layer"
     id="layer7"
     inkscape:label="Line6"
     transform="matrix(0.66012707,0,0,0.6364018,124.63152,109.23132)">
    <path
       style="fill:none;fill-opacity:0;stroke:#cd7c2f;stroke-width:1.07999;stroke-dasharray:none;stroke-opacity:1;marker-start:url(#marker5233);marker-mid:url(#marker5179);marker-end:url(#Dot)"
       d="m 456.49945,302.3148 v -24.94494 l 20.04034,-20.78744 h 24.0484 v 24.94494 l -20.04034,20.78744 h -24.0484 l -16.03226,16.62995 -20.04034,20.78744 -20.04033,20.78745 v 24.94493 24.94493 24.94494 l 24.0484,24.94493 h 28.05647 28.05646 28.05647 l 20.04033,20.78744 24.0484,24.94493 24.0484,24.94494 h 36.07261 32.06453 32.06453 28.05647 28.05647 l 28.05646,-29.10242 v -49.88987 l 28.05647,-29.10242 -8e-5,-33.25991 c 8e-5,-29.10242 8e-5,-29.10242 12.02428,-41.57489 l 24.0484,-24.94493 h 32.06446 l 20.04033,-20.78744 20.04033,-20.78745 20.04033,-20.78744 20.04034,-20.78744 36.07268,-1e-5 h 36.07264 33.2495 l 19.4479,20.78745 19.4478,20.78744"
       id="path3601"
       sodipodi:nodetypes="ccccccccccccccccccccccccccccccccccccccccc" />
  </g>
  <g
     inkscape:groupmode="layer"
     id="layer8"
     inkscape:label="Line7"
     transform="matrix(0.66012707,0,0,0.6364018,124.63152,109.23132)">
    <path
       style="fill:none;fill-opacity:0;stroke:#747f00;stroke-width:1.07999;stroke-dasharray:none;stroke-opacity:1;marker-start:url(#marker5233);marker-mid:url(#marker5179);marker-end:url(#Dot)"
       d="m 1013.6207,-5.3393731 -32.06451,33.2599101 32.06451,37.417399 v 29.102421 29.102423 29.10242 29.10242 29.10242 29.10243 29.10242 29.10242 37.4174 29.10242 33.25991 c 0,16.62995 0,16.62995 -12.0242,29.10242 l -20.04031,20.78744 -20.04033,20.78745 v 33.25991 33.25991 45.73237 l -48.0968,49.88987 h -44.08874 -34.06856 -34.06857 -36.0726 c -16.03226,0 -20.04033,0 -36.0726,16.62995 l -40.08067,41.57489 c -16.03226,16.62996 -16.03226,16.62996 -52.10486,16.62996 h -40.08067 -44.08874 l -28.05646,-29.10243 -28.05647,-29.10242 h -40.08067 -32.06453 l -20.04033,20.78745 -24.0484,24.94493 c -16.03227,12.47247 -16.03227,12.47247 -32.06454,12.47247 h -32.0646 -32.06454 -32.06446 c -24.0484,0 -28.05647,-4.15749 -36.0726,-12.47247 l -24.04847,-24.94493 -24.04833,-24.94494 -24.0484,-24.94493 c -12.0242,-12.47246 -12.0242,-12.47246 -28.24205,-12.47246 H 91.61073 67.593261 43.575791 19.558321 -4.4591487 -28.476618 l -36.072601,0 h -40.080671"
       id="path396"
       sodipodi:nodetypes="ccccccccccccccccccccccccccccccccccccccccccccccccccccc" />
  </g>
  <g
     inkscape:groupmode="layer"
     id="layer9"
     inkscape:label="Line8"
     transform="matrix(0.66012707,0,0,0.6364018,124.63152,109.23132)">
    <path
       style="fill:none;fill-opacity:0;stroke:#e6186c;stroke-width:1.13707;stroke-dasharray:none;stroke-opacity:1;marker-start:url(#marker5233);marker-mid:url(#marker5179);marker-end:url(#Dot)"
       d="m 1061.7175,493.55928 v 45.73238 33.25991 33.25991 l -24.0484,24.94493 24.0484,24.94493 c 20.0404,20.78744 20.0404,20.78744 20.0404,29.10242 v 37.4174 37.4174 33.25991 l -28.0565,29.10242 28.0564,-10e-6 28.0565,10e-6 20.0403,20.78744 v 37.4174 l -20.0403,20.78744 -28.0564,1e-5 h -28.0564"
       id="path2524"
       sodipodi:nodetypes="cccccccccccccccccc" />
  </g>
  <g
     inkscape:groupmode="layer"
     id="layer10"
     inkscape:label="Line9"
     transform="matrix(0.66012707,0,0,0.6364018,124.63152,109.23132)">
    <path
       style="fill:none;fill-opacity:0;stroke:#bdb092;stroke-width:1.07999;stroke-dasharray:none;stroke-opacity:1;marker-start:url(#marker5179);marker-mid:url(#Dot);marker-end:url(#Dot)"
       d="m 139.86218,360.51964 24.0484,24.94493 24.0484,-24.94493 24.0484,-24.94493 h 32.06454 l 20.04033,20.78744 18.0363,18.7087 19.03832,19.74807 19.03831,19.74807 19.03832,19.74807 19.03832,19.74808 19.03831,19.74807 19.03832,19.74807 32.06454,33.25991 24.0484,24.94493 24.0484,24.94493 28.05646,29.10243 c 24.0484,24.94493 24.0484,24.94493 48.0968,24.94493 h 44.08874 40.08067 32.06453 28.05647 32.06453 l 36.0726,37.4174 h 36.0726 l 34.06857,0 34.06856,0 h 28.05647 28.05647 c 24.0484,0 24.0484,24.94493 48.0968,24.94493 h 36.07264 c 20.0403,0 20.0403,0 32.0645,-12.47247 l 20.0403,-20.78744 24.0484,-24.94493 24.0484,-24.94494 24.0484,-24.94493 24.0484,-24.94493"
       id="path3807"
       sodipodi:nodetypes="ccccccccccccccccccccccccccccccccccccc" />
  </g>
  <g
     inkscape:groupmode="layer"
     id="layer11"
     inkscape:label="Gyeongui-Jungang"
     transform="matrix(0.66012707,0,0,0.6364018,124.63152,109.23132)">
    <path
       style="fill:none;fill-opacity:0;stroke:#77c4a3;stroke-width:1.07999;stroke-dasharray:none;stroke-opacity:1;marker-start:url(#marker5233);marker-mid:url(#marker5179);marker-end:url(#Dot)"
       d="m 216.01545,-155.00896 v 32.01266 32.012659 32.012663 32.012664 32.0126632 32.0126638 32.012663 32.012664 32.01267 32.01266 l 24.0484,24.94493 24.0484,24.94493 24.0484,24.94494 24.0484,24.94493 17.63549,18.29295 17.6355,18.29295 17.63549,18.29295 17.6355,18.29295 17.63549,18.29295 40.08067,41.57489 24.0484,24.94493 20.04033,20.78744 40.08067,41.57489 24.0484,24.94493 24.0484,24.94494 20.04033,20.78744 c 24.0484,24.94493 24.0484,24.94493 48.0968,24.94493 h 52.10487 c 32.06453,0 32.06453,0 56.11293,-24.94493 l 36.0726,-37.4174 40.08067,-41.57489 40.08067,-41.57488 c 8e-5,-43.65364 0,-39.49615 40.08058,-78.99228 l 24.04841,-24.94494 h 44.0887 l 40.08065,-10e-6 32.0645,-1e-5 40.0808,2e-5 h 36.0726 36.0726 36.0726 l 24.0484,24.94493 24.0484,24.94493 24.0484,24.94493 24.0484,24.94494 24.0484,24.94493 24.0484,24.94493 23.7356,24.62045 0.063,34.46626 0.053,28.71491 0.059,32.42067 0.064,34.72971 0.036,36.12398 0.038,37.5859"
       id="path6687"
       sodipodi:nodetypes="ccccccccccccccccccccccccccccccccccccccccccccccccccccccc"
       inkscape:label="본선" />
    <path
       style="opacity:1;fill:none;fill-opacity:0;stroke:#77c4a3;stroke-width:1.07999;stroke-dasharray:none;stroke-opacity:1;marker-start:url(#marker5233);marker-mid:url(#marker5179);marker-end:url(#Dot)"
       d="m 440.46719,397.93704 h 84.1694 c 80.16133,0 80.16133,0 80.16133,58.20484"
       id="path11187"
       inkscape:label="서울역지선"
       sodipodi:nodetypes="ccc" />
  </g>
  <g
     inkscape:groupmode="layer"
     id="layer3"
     inkscape:label="Gyeongchun">
    <path
       style="fill:none;fill-opacity:0;stroke:#178c72;stroke-width:0.7;stroke-dasharray:none;stroke-opacity:1;marker-start:url(#marker5233);marker-mid:url(#marker5179);marker-end:url(#Dot)"
       d="m 722.31245,333.375 15.875,-15.875 h 29.10417 26.45833 21.16667 l 26.45838,-26.45833 15.875,-15.875 h 20.78869 20.78869 20.78869 20.78869 20.78869 20.78869 20.78866 L 1023.9375,254 l 0,-23.8125 V 206.375 182.5625 158.75 134.9375 111.125 87.3125 63.5 39.6875"
       id="path9389"
       sodipodi:nodetypes="cccccccccccccccccccccccc" />
    <path
       style="fill:none;stroke:#178c72;stroke-width:0.7;stroke-linecap:round;stroke-linejoin:round;stroke-opacity:1;marker-start:url(#marker5233);marker-mid:url(#marker5233);marker-end:url(#Dot)"
       d="M 793.74999,317.5 C 772.58333,296.33333 772.58333,296.33333 772.58333,243.41667"
       id="path721"
       sodipodi:nodetypes="cc" />
  </g>
  <g
     inkscape:groupmode="layer"
     id="layer12"
     inkscape:label="Suin-Bundang"
     transform="matrix(0.66012707,0,0,0.6364018,124.63152,109.23132)">
    <path
       style="fill:none;fill-opacity:0;stroke:#fabe00;stroke-width:1.07999;stroke-dasharray:none;stroke-opacity:1;marker-start:url(#marker5179);marker-mid:url(#marker5179);marker-end:url(#Dot)"
       d="m 901.39477,356.36216 c -32.06452,33.2599 -32.06438,29.10241 -32.06445,78.99228 v 58.20484 74.8348 l -7e-5,66.51982 7e-5,29.10242 v 37.4174 29.10242 29.10242 29.10242 h 28.05647 28.05647 28.05647 64.12907 l 32.0645,33.25991 v 29.10242 24.94493 24.94494 29.10242 29.10242 29.1024 l -24.0484,24.94488 -32.06451,10e-5 v 29.1024 33.2599 l 1e-5,29.1024 v 29.1024 29.1024 29.1024 29.1025 l -32.06454,33.2599 h -44.08873 -44.08874 -44.08873 l -40.08067,-41.5749 -36.0726,-37.4174 h -76.15327 -74.14923 -74.14923 -74.14924 -74.14923 l -48.0968,-49.8898 -48.09681,-49.8899 -36.0726,-37.4174 H 203.99125 163.91058 131.84605 99.781513 67.71698 35.652447 3.5879137 -28.47662 -60.541153 -92.605686 l -18.036304,-18.7087 -18.0363,-18.7087"
       id="path499"
       sodipodi:nodetypes="cccccccccccccccccccccccccccccccccccccccccccccccccccccccc" />
  </g>
  <g
     inkscape:groupmode="layer"
     id="layer13"
     inkscape:label="Gyeonggang"
     transform="matrix(0.66012707,0,0,0.6364018,124.63152,109.23132)">
    <path
       style="fill:none;stroke:#0054a6;stroke-width:1.07999;stroke-linecap:round;stroke-linejoin:round;stroke-dasharray:none;stroke-opacity:1;marker-start:url(#marker5179);marker-mid:url(#marker5233);marker-end:url(#Dot)"
       d="m 994.02572,959.19802 h 52.10488 35.6273 35.6272 35.6273 35.6273 35.6272 35.6273 35.6272 35.6273 35.6273"
       id="path9711"
       sodipodi:nodetypes="ccccccccccc" />
  </g>
  <g
     inkscape:groupmode="layer"
     id="layer14"
     inkscape:label="Shinbundang"
     transform="matrix(0.66012707,0,0,0.6364018,124.63152,109.23132)">
    <path
       style="fill:none;fill-opacity:0;stroke:#d31145;stroke-width:1.13707;stroke-dasharray:none;stroke-opacity:1;marker-start:url(#marker5179);marker-mid:url(#marker5179);marker-end:url(#marker5179)"
       d="m 801.19319,597.4965 v 37.4174 37.4174 37.41739 49.88987 l 36.0726,37.4174 28.05647,29.10242 124.25007,133.03964 -2e-5,53.90388 2e-5,62.5058 -24.0484,24.9449 -24.0484,24.945 -24.04841,24.9449 -24.04839,24.9449 -24.04841,24.9449 -24.0484,-24.9449"
       id="path2971"
       sodipodi:nodetypes="cccccccccccccccc" />
  </g>
  <g
     inkscape:groupmode="layer"
     id="layer15"
     inkscape:label="IncheonLine1"
     transform="matrix(0.66012707,0,0,0.6364018,124.63152,109.23132)">
    <path
       style="fill:none;fill-opacity:1;stroke:#759cce;stroke-width:1.07999;stroke-linecap:round;stroke-linejoin:round;stroke-dasharray:none;stroke-opacity:1;marker-start:url(#marker21865);marker-mid:url(#marker5233);marker-end:url(#Dot)"
       d="m 3.5879153,393.77955 v 29.10242 29.10242 29.10242 l -32.0645333,33.25991 v 29.10242 29.10243 29.10242 33.25991 29.10243 29.74558 28.45925 l -20.040334,20.78744 v 37.4174 42.2678 42.26781 44.34655 l -28.056467,29.10242 -28.056471,29.10242 -28.05646,29.10242"
       id="path13159"
       sodipodi:nodetypes="cccccccccccccccccccc" />
  </g>
  <g
     inkscape:groupmode="layer"
     id="layer16"
     inkscape:label="IncheonLine2"
     transform="matrix(0.66012707,0,0,0.6364018,124.63152,109.23132)">
    <path
       style="fill:none;fill-opacity:1;stroke:#f5a251;stroke-width:1.07999;stroke-linecap:round;stroke-linejoin:round;stroke-dasharray:none;stroke-opacity:1;marker-start:url(#marker5233);marker-mid:url(#marker5233);marker-end:url(#marker5179)"
       d="m -180.78315,289.84233 h 17.37865 18.69395 l 20.29842,21.05516 19.78225,20.51973 v 29.29734 33.13932 35.7148 l -1e-5,35.78914 v 35.78913 35.78913 35.78914 35.78913 28.89404 27.43943 27.43942 27.43943 l 1e-5,27.43942 v 29.10242 h 28.056463 28.056467 24.0484 24.0484004 24.0484006 l 20.040333,20.78745 h 28.056467 28.056467"
       id="path17523"
       transform="translate(-1.8304557e-6)"
       sodipodi:nodetypes="ccccccccccccccccccccccccccc" />
  </g>
  <g
     inkscape:groupmode="layer"
     id="layer18"
     inkscape:label="ULine"
     transform="matrix(0.66012707,0,0,0.6364018,124.63152,109.23132)">
    <path
       style="fill:none;fill-opacity:0;stroke:#fd8100;stroke-width:1.07999;stroke-dasharray:none;stroke-opacity:1;marker-start:url(#marker5233);marker-mid:url(#marker5179);marker-end:url(#Dot)"
       d="m 1005.6046,-30.284306 h -32.06454 -28.05647 v -29.102421 h -28.05647 v -29.102424 h 89.10258 31.6552 l 23.5326,-24.944929 h 28.0565 32.0645 l 24.0484,24.944929 v 28.105907 30.098938"
       id="path11552"
       sodipodi:nodetypes="cccccccccccccc" />
  </g>
  <g
     inkscape:groupmode="layer"
     id="layer24"
     inkscape:label="Everline">
    <path
       style="fill:none;stroke:#56ad2d;stroke-width:1.07999;stroke-linecap:round;stroke-linejoin:round;stroke-dasharray:none;stroke-opacity:1;marker-start:url(#marker5233);marker-mid:url(#marker5233);marker-end:url(#Dot)"
       d="m 997.32124,1221.1198 24.31556,24.945 h 28.0565 l 24.0484,-24.945 24.0484,24.945 24.0484,24.9449 24.0484,24.9449 h 28.0565 28.0564 28.0565 28.0565 l 24.0484,-24.9449 v -33.2599 -33.2599 l 0.2672,-33.2599 -0.2672,-33.2599"
       id="path5236"
       transform="matrix(0.66012708,0,0,0.63640179,124.63152,109.23132)"
       sodipodi:nodetypes="cccccccccccccccc" />
  </g>
  <g
     inkscape:groupmode="layer"
     id="layer19"
     inkscape:label="UI"
     transform="matrix(0.66012707,0,0,0.6364018,124.63152,109.23132)">
    <path
       style="fill:none;fill-opacity:0;stroke:#b7c450;stroke-width:1.13707;stroke-dasharray:none;stroke-opacity:1;marker-start:url(#marker5233);marker-mid:url(#marker5179);marker-end:url(#Dot)"
       d="m 865.32218,45.936327 v 22.173274 22.173273 22.173276 22.17327 22.17327 22.17327 l -20.04033,20.78744 -20.04034,20.70111 v 27.80293 l 8e-5,33.25991 0,45.73238 -8e-5,54.04735"
       id="path13625"
       sodipodi:nodetypes="ccccccccccccc" />
  </g>
  <g
     inkscape:groupmode="layer"
     id="layer20"
     inkscape:label="Sillim"
     transform="matrix(0.66012707,0,0,0.6364018,124.63152,109.23132)">
    <path
       style="fill:none;stroke:#6789ca;stroke-width:1.07999;stroke-dasharray:none;stroke-opacity:1;marker-start:url(#marker5233);marker-mid:url(#marker5179);marker-end:url(#Dot)"
       d="m 480.54785,580.86654 -24.0484,24.94494 v 18.70869 18.7087 24.94494 l 16.03227,16.62995 v 24.94493 29.10243 29.10242 l 20.04033,20.78744 20.04034,20.78744"
       id="path509"
       sodipodi:nodetypes="ccccccccccc" />
  </g>
  <g
     inkscape:groupmode="layer"
     id="layer21"
     inkscape:label="Seohae"
     transform="matrix(0.66012707,0,0,0.6364018,124.63152,109.23132)">
    <path
       style="fill:none;stroke:#8fc31f;stroke-width:1.07999;stroke-dasharray:none;stroke-opacity:1;marker-start:url(#marker5233);marker-mid:url(#marker5179);marker-end:url(#Dot)"
       d="m 135.85412,668.17381 v 40.651 40.651 40.651 40.651 l 28.05646,32.79797 v 40.18909 40.651 40.651 44.80843 l -32.06453,33.2599 v 45.7324"
       id="path1186"
       sodipodi:nodetypes="cccccccccccc" />
  </g>
  <g
     inkscape:groupmode="layer"
     id="layer22"
     inkscape:label="A'REX"
     transform="matrix(0.66012707,0,0,0.6364018,124.63152,109.23132)">
    <path
       style="fill:none;fill-opacity:0;stroke:#0090d2;stroke-width:1.13707;stroke-dasharray:none;stroke-opacity:1;marker-start:url(#marker5233);marker-mid:url(#marker5179);marker-end:url(#Dot)"
       d="m 600.78985,456.14188 -56.11293,58.20484 -24.0484,-24.94493 -60.121,-62.36233 -64.12907,-66.51982 c -92.18553,-87.30727 -112.22587,-66.51982 -152.30653,-20.78745 -44.08874,49.88987 -44.08874,49.88987 -76.15327,49.88987 H 3.5879153 l -108.2178053,0"
       id="path19153"
       sodipodi:nodetypes="ccccccccc" />
  </g>
  <g
     inkscape:groupmode="layer"
     id="layer23"
     inkscape:label="GimpoGold"
     transform="matrix(0.66012707,0,0,0.6364018,124.63152,109.23132)">
    <path
       style="fill:none;fill-opacity:0;stroke:#ad8605;stroke-width:1.13707;stroke-dasharray:none;stroke-opacity:1;marker-start:url(#marker5233);marker-mid:url(#marker5179);marker-end:url(#Dot)"
       d="M -37.160763,269.05489 H -3.0921958 28.304327 59.700849 l 20.040334,-20.78745 20.040333,20.78745 20.040334,20.78744 20.04033,20.78744 20.04034,20.78745 v 58.20484"
       id="path21366"
       sodipodi:nodetypes="cccccccccc" />
  </g>
  <text
     xml:space="preserve"
     style="font-style:normal;font-variant:normal;font-weight:900;font-stretch:normal;font-size:27.214px;font-family:'Noto Sans Kr';-inkscape-font-specification:'Noto Sans Kr, Heavy';font-variant-ligatures:normal;font-variant-caps:normal;font-variant-numeric:normal;font-variant-east-asian:normal;fill:none;stroke:#178c72;stroke-width:1.07999;stroke-linecap:round;stroke-linejoin:round;stroke-dasharray:none;stroke-opacity:1"
     x="-171.87587"
     y="-127.70537"
     id="text5687"
     transform="matrix(0.64815588,0,0,0.64815588,124.63152,109.23132)"
     inkscape:label="Title"><tspan
       sodipodi:role="line"
       id="tspan5685"
       style="font-style:normal;font-variant:normal;font-weight:900;font-stretch:normal;font-size:27.214px;font-family:'Noto Sans Kr';-inkscape-font-specification:'Noto Sans Kr, Heavy';font-variant-ligatures:normal;font-variant-caps:normal;font-variant-numeric:normal;font-variant-east-asian:normal;fill:#000000;fill-opacity:0.197248;stroke:none;stroke-width:1.07999;stroke-dasharray:none"
       x="-171.87587"
       y="-127.70537">SEOUL</tspan><tspan
       sodipodi:role="line"
       style="font-style:normal;font-variant:normal;font-weight:900;font-stretch:normal;font-size:27.214px;font-family:'Noto Sans Kr';-inkscape-font-specification:'Noto Sans Kr, Heavy';font-variant-ligatures:normal;font-variant-caps:normal;font-variant-numeric:normal;font-variant-east-asian:normal;fill:#000000;fill-opacity:0.197248;stroke:none;stroke-width:1.07999;stroke-dasharray:none"
       x="-171.87587"
       y="-93.687866"
       id="tspan5689">METROPOLITAN</tspan><tspan
       sodipodi:role="line"
       style="font-style:normal;font-variant:normal;font-weight:900;font-stretch:normal;font-size:27.214px;font-family:'Noto Sans Kr';-inkscape-font-specification:'Noto Sans Kr, Heavy';font-variant-ligatures:normal;font-variant-caps:normal;font-variant-numeric:normal;font-variant-east-asian:normal;fill:#000000;fill-opacity:0.197248;stroke:none;stroke-width:1.07999;stroke-dasharray:none"
       x="-171.87587"
       y="-59.670368"
       id="tspan5691">SUBWAY</tspan><tspan
       sodipodi:role="line"
       style="font-style:normal;font-variant:normal;font-weight:900;font-stretch:normal;font-size:27.214px;font-family:'Noto Sans Kr';-inkscape-font-specification:'Noto Sans Kr, Heavy';font-variant-ligatures:normal;font-variant-caps:normal;font-variant-numeric:normal;font-variant-east-asian:normal;fill:#000000;fill-opacity:0.197248;stroke:none;stroke-width:1.07999;stroke-dasharray:none"
       x="-171.87587"
       y="-25.652866"
       id="tspan5695">ROUTE MAP</tspan></text>
  <text
     xml:space="preserve"
     style="font-style:normal;font-variant:normal;font-weight:900;font-stretch:normal;font-size:17.6389px;font-family:'Noto Sans Kr';-inkscape-font-specification:'Noto Sans Kr, Heavy';font-variant-ligatures:normal;font-variant-caps:normal;font-variant-numeric:normal;font-variant-east-asian:normal;fill:#000000;fill-opacity:0.197248;stroke:none;stroke-width:0.7;stroke-linecap:round;stroke-linejoin:round;stroke-dasharray:none;stroke-opacity:1"
     x="15.875"
     y="132.29167"
     id="text6015"
     inkscape:label="Author"><tspan
       sodipodi:role="line"
       id="tspan6013"
       style="font-style:normal;font-variant:normal;font-weight:900;font-stretch:normal;font-size:7.05556px;font-family:'Noto Sans Kr';-inkscape-font-specification:'Noto Sans Kr, Heavy';font-variant-ligatures:normal;font-variant-caps:normal;font-variant-numeric:normal;font-variant-east-asian:normal;stroke-width:0.7"
       x="15.875"
       y="132.29167">Author: JAEU JEONG (wodndb@gmail.com)</tspan></text>
</svg>
