<?xml version="1.0" encoding="UTF-8" standalone="no"?>
<!-- Created with Inkscape (http://www.inkscape.org/) -->

<svg width="4000" height="3000" viewBox="0 0 1058.3333 793.74997" version="1.1" id="svg5"
   inkscape:version="1.2.2 (b0a84865, 2022-12-01)" sodipodi:docname="Metropolitan.svg"
   xmlns:inkscape="http://www.inkscape.org/namespaces/inkscape"
   xmlns:sodipodi="http://sodipodi.sourceforge.net/DTD/sodipodi-0.dtd" xmlns="http://www.w3.org/2000/svg"
   xmlns:svg="http://www.w3.org/2000/svg">
   <sodipodi:namedview id="namedview7" pagecolor="#ffffff" bordercolor="#000000" borderopacity="0.25"
      inkscape:showpageshadow="2" inkscape:pageopacity="0.0" inkscape:pagecheckerboard="0" inkscape:deskcolor="#d1d1d1"
      inkscape:document-units="mm" showgrid="false" inkscape:zoom="0.31822232" inkscape:cx="1841.4799"
      inkscape:cy="1626.2216" inkscape:window-width="1920" inkscape:window-height="1027" inkscape:window-x="0"
      inkscape:window-y="25" inkscape:window-maximized="1" inkscape:current-layer="layer5">
      <inkscape:grid type="xygrid" id="grid66" />
   </sodipodi:namedview>
   <defs id="defs2">
      <marker style="overflow:visible" id="marker5233" refX="0" refY="0" orient="auto" inkscape:stockid="Dot"
         markerWidth="5.6666665" markerHeight="5.6666665" viewBox="0 0 5.6666667 5.6666667" inkscape:isstock="true"
         inkscape:collect="always" preserveAspectRatio="xMidYMid">
         <path transform="scale(0.5)"
            style="fill:context-stroke;fill-rule:evenodd;stroke:context-stroke;stroke-width:1pt"
            d="M 5,0 C 5,2.76 2.76,5 0,5 -2.76,5 -5,2.76 -5,0 c 0,-2.76 2.3,-5 5,-5 2.76,0 5,2.24 5,5 z" id="path5231"
            sodipodi:nodetypes="sssss" />
      </marker>
      <marker style="overflow:visible" id="marker5179" refX="0" refY="0" orient="auto" inkscape:stockid="Dot"
         markerWidth="5.6666665" markerHeight="5.6666665" viewBox="0 0 5.6666667 5.6666667" inkscape:isstock="true"
         inkscape:collect="always" preserveAspectRatio="xMidYMid">
         <path transform="scale(0.5)"
            style="fill:context-stroke;fill-rule:evenodd;stroke:context-stroke;stroke-width:1pt"
            d="M 5,0 C 5,2.76 2.76,5 0,5 -2.76,5 -5,2.76 -5,0 c 0,-2.76 2.3,-5 5,-5 2.76,0 5,2.24 5,5 z" id="path5177"
            sodipodi:nodetypes="sssss" />
      </marker>
      <marker style="overflow:visible" id="Dot" refX="0" refY="0" orient="auto" inkscape:stockid="Dot"
         markerWidth="5.6666665" markerHeight="5.6666665" viewBox="0 0 5.6666667 5.6666667" inkscape:isstock="true"
         inkscape:collect="always" preserveAspectRatio="xMidYMid">
         <path transform="scale(0.5)"
            style="fill:context-stroke;fill-rule:evenodd;stroke:context-stroke;stroke-width:1pt"
            d="M 5,0 C 5,2.76 2.76,5 0,5 -2.76,5 -5,2.76 -5,0 c 0,-2.76 2.3,-5 5,-5 2.76,0 5,2.24 5,5 z" id="Dot1"
            sodipodi:nodetypes="sssss" />
      </marker>
   </defs>
   <g inkscape:groupmode="layer" id="layer2" inkscape:label="Line1"
      style="fill:none;stroke-width:1.000125;stroke-dasharray:none">
      <path
         style="fill:none;stroke:#0052a4;stroke-width:1.00013;stroke-dasharray:none;stroke-opacity:1;marker-start:url(#marker5233);marker-mid:url(#marker5233);marker-end:url(#Dot);paint-order:normal"
         d="m 126.25911,74.966348 596.68744,-4.208126 0.81108,178.860478 -227.79052,-0.51189 -0.48956,67.42064 2.5364,101.15757 -172.99297,0.61097 -100.68738,0.0112 m -1.07146,2.38345 -193.283429,-1.55824 m 193.512799,2.29064 0.79519,298.54319 772.25228,-4.74965"
         id="path6872" inkscape:label="Path" sodipodi:nodetypes="ccccccccccccc" />
   </g>
   <g inkscape:label="Line2" inkscape:groupmode="layer" id="layer1">
      <path
         style="display:inline;fill:none;stroke:#00a84d;stroke-width:1.32292;stroke-dasharray:none;stroke-opacity:1;marker-start:url(#marker5179);marker-mid:url(#Dot);marker-end:url(#marker5233);paint-order:normal;fill-opacity:0"
         d="m 359.08144,315.0569 353.55767,-0.20922 59.01598,48.94968 -23.3335,141.10729 -75.64008,23.19404 -278.59952,-0.82386 -69.35255,-69.66005 0.27462,-86.90702 z"
         id="path1224" sodipodi:nodetypes="ccccccccc" inkscape:label="Path" />
      <path
         style="fill:none;fill-opacity:0;stroke:#00a84d;stroke-width:1.00013;stroke-dasharray:none;stroke-opacity:1;marker-start:url(#marker5233);marker-mid:url(#marker5179);marker-end:url(#Dot);paint-order:normal"
         d="m 275.04919,367.977 48.29632,49.39577" id="path12795" sodipodi:nodetypes="cc" />
      <path
         style="fill:none;fill-opacity:0;stroke:#00a84d;stroke-width:1.00013;stroke-dasharray:none;stroke-opacity:1;marker-start:url(#marker5233);marker-mid:url(#marker5179);marker-end:url(#Dot);paint-order:normal"
         d="m 770.48229,361.227 -1.35292,-71.70426 -44.19559,-39.23438" id="path12797" sodipodi:nodetypes="ccc" />
   </g>
   <g inkscape:groupmode="layer" id="layer4" inkscape:label="Line3">
      <path
         style="fill:none;fill-opacity:0;stroke:#ef7c1c;stroke-width:1.00012;stroke-dasharray:none;stroke-opacity:1;marker-start:url(#marker5233);marker-mid:url(#marker5179);marker-end:url(#Dot);paint-order:normal"
         d="m 65.512888,132.98224 494.009692,1.24706 0.86169,116.47972 0.18018,65.36028 0.0658,212.19049 83.34745,75.29511 288.53548,-2.78778"
         id="path9155" inkscape:label="Path" sodipodi:nodetypes="ccccccc" />
   </g>
   <g inkscape:groupmode="layer" id="layer5" inkscape:label="Line4">
      <path
         style="fill:none;fill-opacity:0;stroke:#00a4e3;stroke-width:1.00012;stroke-dasharray:none;stroke-opacity:1;marker-start:url(#marker5233);marker-mid:url(#Dot);marker-end:url(#Dot);paint-order:normal"
         d="m 976.06958,75.627887 1.33938,54.586133 -253.63638,-2.49063 -98.78683,122.73627 0.40468,63.48484 -0.17255,105.44062 -63.34683,-1.94046 -64.18695,0.18219 0.10256,108.67649 -65.00768,86.45397 -209.21893,4.64973 -150.405009,78.98377"
         id="path10311" inkscape:label="Path" sodipodi:nodetypes="cccccccccccc" />
   </g>
   <g inkscape:groupmode="layer" id="layer6" inkscape:label="Line5">
      <path
         style="fill:none;fill-opacity:0;stroke:#996cac;stroke-width:1;stroke-dasharray:none;stroke-opacity:1;marker-start:url(#marker5233);marker-mid:url(#marker5179);marker-end:url(#Dot)"
         d="m 189.10733,253.85581 85.3862,114.67108 50.30078,0.90405 70.69159,51.95238 41.22475,-105.42858 -3.38565,-123.98952 58.29991,-1.67669 67.8181,60.17614 67.50775,67.02701 52.65672,53.80854 67.03718,-27.46767 58.34845,-1.25969 50.90864,59.39343 -1.06058,68.93883 74.24179,-1.06061 v -61.51462 h 53.02983"
         id="path390" sodipodi:nodetypes="ccccccccccccccccc" />
      <path
         style="fill:none;fill-opacity:0;stroke:#996cac;stroke-width:1;stroke-dasharray:none;stroke-opacity:1;marker-start:url(#marker5179);marker-mid:url(#marker5179);marker-end:url(#Dot)"
         d="m 929.55191,468.93315 1.66288,54.87517 h 53.21228" id="path3365" />
   </g>
   <g inkscape:groupmode="layer" id="layer7" inkscape:label="Line6">
      <path
         style="fill:none;fill-opacity:0;stroke:#cd7c2f;stroke-width:1;stroke-dasharray:none;stroke-opacity:1;marker-start:url(#marker5233);marker-mid:url(#marker5179);marker-end:url(#Dot)"
         d="m 360.0143,158.80538 49.05505,-0.83144 -2.49431,-48.22362 -49.88652,-1.66289 4.98866,203.70323 70.67254,59.86383 62.35814,-3.32578 68.17822,0.83143 h 64.85246 l 53.21228,2.49434 -2.49433,-55.70661 -1.66288,-66.51534 47.39218,-59.03236 257.74695,1.66288"
         id="path3601" sodipodi:nodetypes="cccccccccccccc" />
   </g>
   <g inkscape:groupmode="layer" id="layer8" inkscape:label="Line7" />
   <g inkscape:groupmode="layer" id="layer9" inkscape:label="Line8" />
   <g inkscape:groupmode="layer" id="layer10" inkscape:label="Line9" />
   <g inkscape:groupmode="layer" id="layer11" inkscape:label="GJ" />
   <g inkscape:groupmode="layer" id="layer12" inkscape:label="SIB" />
   <g inkscape:groupmode="layer" id="layer13" inkscape:label="GC" />
   <g inkscape:groupmode="layer" id="layer14" inkscape:label="SB" />
   <g inkscape:groupmode="layer" id="layer15" inkscape:label="IncheonLine1" />
   <g inkscape:groupmode="layer" id="layer16" inkscape:label="IncheonLine2" />
   <g inkscape:groupmode="layer" id="layer17" inkscape:label="GG" />
   <g inkscape:groupmode="layer" id="layer18" inkscape:label="U" />
   <g inkscape:groupmode="layer" id="layer19" inkscape:label="UI" />
   <g inkscape:groupmode="layer" id="layer20" inkscape:label="SL" />
   <g inkscape:groupmode="layer" id="layer21" inkscape:label="SH" />
   <g inkscape:groupmode="layer" id="layer22" inkscape:label="IA" />
   <g inkscape:groupmode="layer" id="layer23" inkscape:label="EV" />
</svg>