<svg width="4500" height="3800" version="1.1" viewBox="0 0 1190.6 1005.4" xmlns="http://www.w3.org/2000/svg">
 <defs>
  <marker id="marker21865" overflow="visible" markerHeight="5.6666665" markerWidth="5.6666665" orient="auto" preserveAspectRatio="xMidYMid" viewBox="0 0 5.6666667 5.6666667">
   <path transform="scale(.5)" d="m5 0c0 2.76-2.24 5-5 5s-5-2.24-5-5 2.3-5 5-5c2.76 0 5 2.24 5 5z" fill="context-stroke" fill-rule="evenodd" stroke="context-stroke" stroke-width="1pt"/>
  </marker>
  <marker id="marker5233" overflow="visible" markerHeight="5.6666665" markerWidth="5.6666665" orient="auto" preserveAspectRatio="xMidYMid" viewBox="0 0 5.6666667 5.6666667">
   <path transform="scale(.5)" d="m5 0c0 2.76-2.24 5-5 5s-5-2.24-5-5 2.3-5 5-5c2.76 0 5 2.24 5 5z" fill="context-stroke" fill-rule="evenodd" stroke="context-stroke" stroke-width="1pt"/>
  </marker>
  <marker id="marker5179" overflow="visible" markerHeight="5.6666665" markerWidth="5.6666665" orient="auto" preserveAspectRatio="xMidYMid" viewBox="0 0 5.6666667 5.6666667">
   <path transform="scale(.5)" d="m5 0c0 2.76-2.24 5-5 5s-5-2.24-5-5 2.3-5 5-5c2.76 0 5 2.24 5 5z" fill="context-stroke" fill-rule="evenodd" stroke="context-stroke" stroke-width="1pt"/>
  </marker>
  <marker id="Dot" overflow="visible" markerHeight="5.6666665" markerWidth="5.6666665" orient="auto" preserveAspectRatio="xMidYMid" viewBox="0 0 5.6666667 5.6666667">
   <path transform="scale(.5)" d="m5 0c0 2.76-2.24 5-5 5s-5-2.24-5-5 2.3-5 5-5c2.76 0 5 2.24 5 5z" fill="context-stroke" fill-rule="evenodd" stroke="context-stroke" stroke-width="1pt"/>
  </marker>
 </defs>
 <g stroke="#d1f0ff" stroke-linecap="round" stroke-linejoin="round">
  <path transform="matrix(.66013 0 0 .6364 124.63 109.23)" d="m-188.8 111.07 444.9 1e-5 368.74 382.49h40.081l108.22 112.25h152.31l80.161-83.15h64.129l92.186 91.465h24.048l52.105-54.047v-83.15l72.145-74.835h120.24l56.113 58.205" fill="none" stroke-width="15.428"/>
  <path d="m537.1 423.33-7.9375 10.583v15.875l31.75 34.396 37.042-1e-5 10.583-10.583" fill="none" stroke-width="3"/>
  <path d="m1106 402.17 84.667-89.958" fill-opacity=".19725" stroke-width="5"/>
  <path d="m1108.6 404.81 31.75 31.75v140.23l50.271 50.271" fill="none" stroke-width="5"/>
 </g>
 <g transform="matrix(.66013 0 0 .6364 124.63 109.23)" stroke="#0052a4" stroke-width="1.08">
  <g fill="none">
   <path d="m857.31-130.06h36.574 36.574 36.574 36.574 36.574 36.574 36.574 36.574l28.056 29.102v36.138 34.539 29.102 29.102 31.981 29.102 34.539 27.823 29.102 30.382 29.102 33.26l-24.048 24.945-28.056 29.102-28.056 29.102c-28.056 29.102-28.056 29.102-40.081 29.102h-32.065-36.073l-36.073 1e-5 -32.015-0.0289-36.122 0.0289h-40.081l-36.073 37.417 3e-5 33.26v49.89c0 33.26 0 33.26-12.024 45.732-48.097 49.89-48.097 49.89-96.194 49.89h-40.081l-24.048-24.945-32.065 33.26-28.056 29.102-28.056 29.102c-22.827 0-36.073 19.595-36.073 37.417l7e-5 41.575v45.732l-5e-5 49.89 32.065 33.26 32.065 33.26 32.065 33.26 32.065 33.26 32.065 33.26 32.065 33.26 32.065 33.26 32.065 33.26 32.065 33.26 32.065 33.26 32.065 33.26 32.065 33.26v43.938 41.89l-32.065 34.739h-48.097-48.097-48.097-48.097-48.097-48.097-48.097-48.097-48.097-48.097-48.097-48.097-48.097-48.097-48.097-48.097-48.097" marker-end="url(#Dot)" marker-mid="url(#marker5233)" marker-start="url(#marker5233)" style="paint-order:normal"/>
   <path d="m544.68 668.17h-29.66-29.66-29.66-29.66-29.66-32.065-32.065-32.065-32.065-32.065-32.065-32.065l-24.048 24.945v29.102l-20.04 20.787-32.065-1e-5h-35.967-36.179-36.073-36.073l-20.04 20.787" marker-end="url(#Dot)" marker-mid="url(#marker5179)" marker-start="url(#marker5233)"/>
   <path d="m512.61 792.9-36.073 37.417" marker-end="url(#Dot)" marker-mid="url(#marker5179)" marker-start="url(#marker5233)" stroke-linecap="round" stroke-linejoin="round"/>
  </g>
  <path d="m897.39 1241.9 32.065 33.26" marker-end="url(#Dot)" marker-mid="url(#marker5233)" marker-start="url(#marker5233)" stroke-linecap="round" stroke-linejoin="round"/>
 </g>
 <g transform="matrix(.66013 0 0 .6364 124.63 109.23)" fill="none">
  <g stroke="#00a84d" stroke-width="1.08">
   <path d="m660.91 422.88h32.065 32.065 28.056 28.056 32.065 32.065 40.081 36.073 28.056 44.089 32.064c14.028 0 20.04 0 32.065 12.472l28.056 29.102 24.048 24.945 24.048 24.945 24.048 24.945 20.04 20.787h32.065l24.048 24.945v49.89l-28.056 29.102-28.056 29.102c-12.024 12.472-12.024 12.472-52.105 12.472h-56.113-34.069-34.068-68.137l-40.081 37.417h-48.097-34.469-34.469-34.469-34.469-34.469l-24.048-24.945-24.048-24.945-24.048-24.945-24.048-24.945v-45.732-41.575-45.732l20.04-20.787 32.065-33.26z" marker-end="url(#marker5233)" marker-mid="url(#Dot)" marker-start="url(#marker5179)" style="paint-order:normal"/>
   <path d="m1133.9 514.35c0-37.417 0-37.417-24.048-62.362l-32.065-33.26-20.04-20.787c-7.1947-7.4629-20.184-8.315-32.065-8.315" marker-end="url(#Dot)" marker-mid="url(#marker5179)" marker-start="url(#marker5233)" style="paint-order:normal"/>
   <path d="m576.74 597.5-32.065-33.26h-40.081l-32.065-33.26v-45.732" marker-end="url(#Dot)" marker-mid="url(#marker5179)" marker-start="url(#marker5233)"/>
  </g>
  <g stroke-width="1.08">
   <path d="m340.27 165.12h40.081l24.048 24.945 24.048 24.945 24.048 24.945 24.048 24.945h40.081l24.048-24.945 28.056-29.102h32.065 32.065l20.04 20.787 20.04 20.787 32.065 33.26 16.032 16.63 20.04 20.787 20.04 20.787h32.065 32.065 28.056l36.073 37.417v41.575l32.065 33.26 20.04 20.787 20.04 20.787 24.048 24.945 42.085 43.654-26.052 27.024c-28.056 0-28.056 0-32.065 4.1575l-40.081 41.575v66.52 58.205h72.145 34.068 34.069 28.056 28.056l24.048 24.945 36.073 37.417 36.073-37.417 64.129-66.52 28.056-29.102 28.056-29.102" marker-end="url(#Dot)" marker-mid="url(#marker5179)" marker-start="url(#marker5233)" stroke="#ef7c1c" style="paint-order:normal"/>
   <path d="m1354.3 123.54h-28.056-28.056-28.056-28.056-32.064-36.073l-24.048 24.945-24.048 24.945-24.048 24.945-24.048 24.945-24.048 24.945-28.056 29.102-32.065 33.26-28.056 29.102c-16.032 16.63-16.032 16.63-16.032 45.732v45.732l-24.048 24.945h-40.081-36.073-36.073v29.102 41.575c0 24.945 0 20.787 8.0161 29.102l20.04 20.787v54.047 37.417 37.417 37.417 33.26 33.26 29.102l-23.38 23.559-23.38 23.559-23.38 23.559-23.38 23.559-23.38 23.559-23.38 23.559-24.048 24.945-23.046 23.906-23.046 23.906-23.046 23.906-23.046 23.906h-33.401-33.401-33.401l-24.048-24.945h-56.113-60.121-52.105l-24.048-24.945" marker-end="url(#Dot)" marker-mid="url(#marker21865)" marker-start="url(#marker5233)" stroke="#00a4e3" style="paint-order:normal"/>
   <path d="m392.37 327.26-28.056 29.102 7e-5 33.26h40.081 28.056l20.04 20.787 20.04 20.787v24.945 24.945l16.032 16.63h24.048 24.048 24.048l16.032 16.63 28.056 29.102 28.056 29.102 24.048-24.945 20.04-20.787 24.048-24.945 24.048-24.945 28.056-29.102 28.056-29.102 24.048-24.945c6.652-9.0195 12.826-14.729 28.057-16.63 16.048-0.0623 52.105 0 52.105 0l40.081 41.575c8.0161 8.315 10.02 10.394 18.036 18.709 8.0161 8.315 18.036 18.709 18.036 18.709h36.073l34.068 1e-5 26.052-24.945c8.0161-8.315 8.0161-8.315 40.081-8.315h28.056l20.04 20.787 20.04 20.787 28.056 29.102 24.048 24.945h44.089 28.056l28.057-29.102v-29.102-29.102h28.056 26.339 26.911 26.911l20.613 20.787 20.04 20.787 20.04 20.787" marker-end="url(#Dot)" marker-mid="url(#marker5179)" marker-start="url(#marker5233)" stroke="#996cac"/>
   <path d="m1290.2 518.5 28.056 29.102v45.732 37.417l28.056 29.102h32.065 32.064l24.048-24.945" marker-end="url(#Dot)" marker-mid="url(#marker5179)" marker-start="url(#marker5179)" stroke="#996cac"/>
   <path d="m656.9 302.31v-24.945l20.04-20.787h24.048v24.945l-20.04 20.787h-24.048l-16.032 16.63-20.04 20.787-20.04 20.787v24.945 24.945 24.945l24.048 24.945h28.056 28.056 28.056l20.04 20.787 24.048 24.945 24.048 24.945h36.073 32.065 32.065 28.056 28.056l28.056-29.102v-49.89l28.056-29.102-8e-5 -33.26c8e-5 -29.102 8e-5 -29.102 12.024-41.575l24.048-24.945h32.064l20.04-20.787 20.04-20.787 20.04-20.787 20.04-20.787 36.073-1e-5h36.073 33.25l19.448 20.787 19.448 20.787" marker-end="url(#Dot)" marker-mid="url(#marker5179)" marker-start="url(#marker5233)" stroke="#cd7c2f"/>
   <path d="m1214-5.3394-32.064 33.26 32.064 37.417v29.102 29.102 29.102 29.102 29.102 29.102 29.102 29.102 37.417 29.102 33.26c0 16.63 0 16.63-12.024 29.102l-20.04 20.787-20.04 20.787v33.26 33.26 45.732l-48.097 49.89h-44.089-34.069-34.068-36.073c-16.032 0-20.04 0-36.073 16.63l-40.081 41.575c-16.032 16.63-16.032 16.63-52.105 16.63h-40.081-44.089l-28.056-29.102-28.056-29.102h-40.081-32.065l-20.04 20.787-24.048 24.945c-16.032 12.472-16.032 12.472-32.065 12.472h-32.065-32.065-32.064c-24.048 0-28.056-4.1575-36.073-12.472l-24.048-24.945-24.048-24.945-24.048-24.945c-12.024-12.472-12.024-12.472-28.242-12.472h-24.017-24.017-24.017-24.017-24.017-24.017-36.073-40.081" marker-end="url(#Dot)" marker-mid="url(#marker5179)" marker-start="url(#marker5233)" stroke="#747f00"/>
  </g>
  <path d="m1262.1 485.24v37.417 41.575 41.575l-24.048 24.945 24.048 24.945 24.048 24.113v38.249 37.417 33.26l-32.064 33.26 28.056-1e-5 28.056 1e-5 20.04 20.787v37.417l-20.04 20.787-28.056 1e-5h-28.056" marker-end="url(#Dot)" marker-mid="url(#marker5179)" marker-start="url(#marker5233)" stroke="#e6186c" stroke-width="1.1371"/>
  <g stroke-width="1.08">
   <path d="m340.27 360.52 24.048 24.945 24.048-24.945 24.048-24.945h32.065l20.04 20.787 18.036 18.709 19.038 19.748 19.038 19.748 19.038 19.748 19.038 19.748 19.038 19.748 19.038 19.748 32.065 33.26 24.048 24.945 24.048 24.945 28.056 29.102c24.048 24.945 24.048 24.945 48.097 24.945h44.089 40.081 32.065 28.056 32.065l36.073 37.417h36.073 34.068 34.069 28.056 28.056c24.048 0 24.048 24.945 48.097 24.945h36.073c20.04 0 20.04 0 32.064-12.472l20.04-20.787 28.056-29.102v-37.417h24.048l28.056-29.102 24.048-24.945" marker-end="url(#Dot)" marker-mid="url(#Dot)" marker-start="url(#marker5179)" stroke="#bdb092"/>
   <path d="m416.42-155.01v32.013 32.013 32.013 32.013 32.013 32.013 32.013 32.013 32.013 32.013l24.048 24.945 24.048 24.945 24.048 24.945 24.048 24.945 17.635 18.293 17.636 18.293 17.635 18.293 17.636 18.293 17.635 18.293 40.081 41.575 24.048 24.945 20.04 20.787 40.081 41.575 24.048 24.945 24.048 24.945 20.04 20.787c24.048 24.945 24.048 24.945 48.097 24.945h52.105c32.065 0 32.065 0 56.113-24.945l36.073-37.417 40.081-41.575 40.081-41.575c1e-4 -43.654 0-39.496 40.081-78.992l24.048-24.945h44.089l40.081-1e-5 32.064-1e-5 40.081 2e-5h36.073 36.073 36.073l24.048 24.945 24.048 24.945 24.048 24.945 24.048 24.945 24.048 24.945 24.048 24.945 23.736 24.62 0.063 34.466 0.053 28.715 0.059 32.421 0.064 34.73 0.036 36.124 0.038 37.586" marker-end="url(#Dot)" marker-mid="url(#marker5179)" marker-start="url(#marker5233)" stroke="#77c4a3"/>
   <path d="m640.87 397.94h84.169c80.161 0 80.161 0 80.161 58.205" marker-end="url(#Dot)" marker-mid="url(#marker5179)" marker-start="url(#marker5233)" stroke="#77c4a3"/>
  </g>
 </g>
 <g fill="none" stroke="#178c72" stroke-width=".7">
  <path d="m854.6 333.38 15.875-15.875h29.104 26.458 21.167l26.458-26.458 15.875-15.875h20.789 20.789 20.789 20.789 20.789 20.789 20.789l21.167-21.167v-23.812-23.812-23.812-23.812-23.812-23.812-23.812-23.812-23.812" marker-end="url(#Dot)" marker-mid="url(#marker5179)" marker-start="url(#marker5233)"/>
  <path d="m926.04 317.5c-21.167-21.167-21.167-21.167-21.167-74.083" marker-end="url(#Dot)" marker-mid="url(#marker5233)" marker-start="url(#marker5233)" stroke-linecap="round" stroke-linejoin="round"/>
 </g>
 <g transform="matrix(.66013 0 0 .6364 124.63 109.23)" fill="none">
  <path d="m1101.8 356.36c-32.065 33.26-32.064 29.102-32.064 78.992v58.205 74.835l-1e-4 66.52 1e-4 29.102v37.417 29.102 29.102 29.102h28.056 28.056 28.056 64.129l32.064 33.26v24.945 29.102 24.945 29.102 29.102 29.102l-24.048 24.945-32.064 1e-4v29.102 33.26 29.102 29.102 29.102 29.102 29.102c-32.065 33.26-32.065 33.26-44.089 33.26h-40.081-44.089c-37.157-0.379-36.073 0-48.097-12.472l-32.065-33.26-32.064-33.26c-16.032-16.63-16.032-16.63-56.113-16.63-44.089 0-44.089 0-60.121 16.63-32.065 41.575-32.065 41.575-68.137 41.575h-64.129-64.129-64.129c-36.073 0-36.073 0-56.113-20.787l-40.081-41.575v-49.89l-24.048-24.945h-56.113-56.113-56.113l-24.048-24.945v-41.575l-28.056-29.102h-32.065-32.065-32.065l-20.04-20.787-20.04-20.787-28.056-29.102-28.056-29.102-28.056-29.102-28.056-29.102-28.056-29.102-28.056-29.102" marker-end="url(#Dot)" marker-mid="url(#marker5179)" marker-start="url(#marker5179)" stroke="#fabe00" stroke-width="1.08"/>
  <path d="m1194.4 959.2h52.105 35.627 35.627 35.627 35.627 35.627 35.627 35.627 35.627 35.627" marker-end="url(#Dot)" marker-mid="url(#marker5233)" marker-start="url(#marker5179)" stroke="#0054a6" stroke-linecap="round" stroke-linejoin="round" stroke-width="1.08"/>
  <path d="m1001.6 597.5v37.417 37.417 37.417 49.89l36.073 37.417 28.056 29.102 124.25 133.04v53.904 62.506l-24.048 24.945-24.048 24.945-24.048 24.945-24.048 24.945h-32.065l-24.048-24.945" marker-end="url(#marker5179)" marker-mid="url(#marker5179)" marker-start="url(#marker5179)" stroke="#d31145" stroke-width="1.1371"/>
  <g stroke-width="1.08">
   <path d="m203.99 393.78v29.102 29.102 29.102l-32.065 33.26v29.102 29.102 29.102 33.26 29.102 29.746 28.459l-20.04 20.787v37.417l-5e-5 24.945v24.945 29.102 29.102l-24.048 24.945-24.048 24.945-28.056 29.102-24.048 24.945-24.048 24.945-24.048 24.945-24.048 24.945-24.048-24.945-24.048-24.945-24.048-24.945-24.048-24.945" marker-end="url(#Dot)" marker-mid="url(#marker5233)" marker-start="url(#marker21865)" stroke="#759cce" stroke-linecap="round" stroke-linejoin="round"/>
   <path transform="translate(-1.8305e-6)" d="m-8.4363 289.84h32.065l32.065 1e-5 20.298 21.055 19.782 20.52v29.297 33.139 35.715l-1e-5 35.789v35.789 35.789 35.789 35.789 28.894 27.439 27.439 27.439l1e-5 27.439v29.102h28.056 28.056 24.048 24.048 24.048l20.04 20.787h28.056 28.056" marker-end="url(#marker5179)" marker-mid="url(#marker5233)" marker-start="url(#marker5233)" stroke="#f5a251" stroke-linecap="round" stroke-linejoin="round"/>
   <path d="m1206-30.284h-32.065-28.056v-29.102h-28.056v-29.102h89.103 31.655l23.533-24.945h28.056 32.064l24.048 24.945v28.106 30.099" marker-end="url(#Dot)" marker-mid="url(#marker5179)" marker-start="url(#marker5233)" stroke="#fd8100"/>
  </g>
 </g>
 <path transform="matrix(.66013 0 0 .6364 124.63 109.23)" d="m1197.7 1221.1 24.316 24.945h28.056l24.048-24.945 24.048 24.945 24.048 24.945 24.048 24.945h28.056 28.056 28.056 28.056l24.048-24.945v-33.26-33.26l0.2672-33.26-0.2672-33.26" fill="none" marker-end="url(#Dot)" marker-mid="url(#marker5233)" marker-start="url(#marker5233)" stroke="#56ad2d" stroke-linecap="round" stroke-linejoin="round" stroke-width="1.08"/>
 <g transform="matrix(.66013 0 0 .6364 124.63 109.23)" fill="none">
  <path d="m1065.7 45.936v22.173 22.173 22.173 22.173 22.173 22.173l-20.04 20.787-20.04 20.701v27.803l1e-4 33.26v45.732l-1e-4 54.047" marker-end="url(#Dot)" marker-mid="url(#marker5179)" marker-start="url(#marker5233)" stroke="#b7c450" stroke-width="1.1371"/>
  <path d="m680.95 580.87-24.048 24.945v18.709 18.709 24.945l16.032 16.63v24.945 29.102 29.102l20.04 20.787 20.04 20.787" marker-end="url(#Dot)" marker-mid="url(#marker5179)" marker-start="url(#marker5233)" stroke="#6789ca" stroke-width="1.08"/>
  <path d="m336.26 668.17-6e-5 41.575v45.732 45.732 49.89l32.064 32.798 32.065 33.722v49.89 49.89 58.205l-32.065 33.26v45.732" marker-end="url(#Dot)" marker-mid="url(#marker5179)" marker-start="url(#marker5233)" stroke="#8fc31f" stroke-width="1.08"/>
  <path d="m801.19 456.14-56.113 58.205-24.048-24.945-60.121-62.362-64.129-66.52c-92.186-87.307-112.23-66.52-152.31-20.787-44.089 49.89-44.089 49.89-76.153 49.89h-164.33l-108.22-1e-5h-104.21l-24.343 26.261-21.155 22.822-23.085 24.904-23.602 25.794-28.056-29.102" marker-end="url(#Dot)" marker-mid="url(#marker5179)" marker-start="url(#marker5233)" stroke="#0090d2" stroke-width="1.1371"/>
  <path d="m131.85 165.12h36.073 36.073l36.073-1e-5 24.048 24.945 24.048 24.945 24.048 24.945 24.048 24.945 24.048 24.945 6e-5 99.78" marker-end="url(#Dot)" marker-mid="url(#marker5179)" marker-start="url(#marker5233)" stroke="#ad8605" stroke-width="1.1371"/>
 </g>
 <text x="13.229164" y="26.458334" fill="#000000" fill-opacity=".19725" font-family="'Noto Sans Kr'" font-size="17.639px" font-weight="900" stroke-linecap="round" stroke-linejoin="round" stroke-width=".7" style="font-variant-caps:normal;font-variant-east-asian:normal;font-variant-ligatures:normal;font-variant-numeric:normal" xml:space="preserve"><tspan x="13.229164" y="26.458334" style="font-variant-caps:normal;font-variant-east-asian:normal;font-variant-ligatures:normal;font-variant-numeric:normal">SEOUL</tspan><tspan x="13.229164" y="48.506958" style="font-variant-caps:normal;font-variant-east-asian:normal;font-variant-ligatures:normal;font-variant-numeric:normal">METROPOLITAN</tspan><tspan x="13.229164" y="70.555588" style="font-variant-caps:normal;font-variant-east-asian:normal;font-variant-ligatures:normal;font-variant-numeric:normal">SUBWAY</tspan><tspan x="13.229164" y="92.60421" style="font-variant-caps:normal;font-variant-east-asian:normal;font-variant-ligatures:normal;font-variant-numeric:normal">ROUTE MAP</tspan></text>
 <text x="15.875" y="132.29167" fill="#000000" fill-opacity=".19725" font-family="'Noto Sans Kr'" font-size="17.639px" font-weight="900" stroke-linecap="round" stroke-linejoin="round" stroke-width=".7" style="font-variant-caps:normal;font-variant-east-asian:normal;font-variant-ligatures:normal;font-variant-numeric:normal" xml:space="preserve"><tspan x="15.875" y="132.29167" font-family="'Noto Sans Kr'" font-size="7.0556px" font-weight="900" stroke-width=".7" style="font-variant-caps:normal;font-variant-east-asian:normal;font-variant-ligatures:normal;font-variant-numeric:normal">Author: JAEU JEONG (wodndb@gmail.com)</tspan></text>
</svg>
