<svg width="4500" height="3800" version="1.1" viewBox="0 0 1190.6 1005.4" xmlns="http://www.w3.org/2000/svg" xmlns:xlink="http://www.w3.org/1999/xlink">
 <defs>
  <marker id="marker5233" overflow="visible" markerHeight="5.6666665" markerWidth="5.6666665" orient="auto" preserveAspectRatio="xMidYMid" viewBox="0 0 5.6666667 5.6666667">
   <path transform="scale(.5)" d="m5 0c0 2.76-2.24 5-5 5s-5-2.24-5-5 2.3-5 5-5c2.76 0 5 2.24 5 5z" fill="context-stroke" fill-rule="evenodd" stroke="context-stroke" stroke-width="1pt"/>
  </marker>
  <marker id="marker5179" overflow="visible" markerHeight="5.6666665" markerWidth="5.6666665" orient="auto" preserveAspectRatio="xMidYMid" viewBox="0 0 5.6666667 5.6666667">
   <path transform="scale(.5)" d="m5 0c0 2.76-2.24 5-5 5s-5-2.24-5-5 2.3-5 5-5c2.76 0 5 2.24 5 5z" fill="context-stroke" fill-rule="evenodd" stroke="context-stroke" stroke-width="1pt"/>
  </marker>
  <marker id="Dot" overflow="visible" markerHeight="5.6666665" markerWidth="5.6666665" orient="auto" preserveAspectRatio="xMidYMid" viewBox="0 0 5.6666667 5.6666667">
   <path transform="scale(.5)" d="m5 0c0 2.76-2.24 5-5 5s-5-2.24-5-5 2.3-5 5-5c2.76 0 5 2.24 5 5z" fill="context-stroke" fill-rule="evenodd" stroke="context-stroke" stroke-width="1pt"/>
  </marker>
 </defs>
 <g stroke="#d1f0ff" stroke-linecap="round" stroke-linejoin="round">
  <path transform="matrix(.66013 0 0 .6364 124.63 109.23)" d="m-188.8 111.07 444.9 1e-5 368.74 382.49h40.081l108.22 112.25h152.31l80.161-83.15h64.129l92.186 91.465h24.048l52.105-54.047v-83.15l72.145-74.835h120.24l56.113 58.205" fill="none" stroke-width="15.428"/>
  <path d="m537.1 423.33-7.9375 10.583v15.875l31.75 34.396 37.042-1e-5 10.583-10.583" fill="none" stroke-width="3"/>
  <path d="m1106 402.17 84.667-89.958" fill-opacity=".19725" stroke-width="5"/>
  <path d="m1108.6 404.81 31.75 31.75v140.23l50.271 50.271" fill="none" stroke-width="5"/>
 </g>
 <g transform="matrix(.66013 0 0 .6364 124.63 109.23)">
  <path d="m131.85 165.12h36.073 36.073l36.073-1e-5 24.048 24.945 24.048 24.945 24.048 24.945 24.048 24.945 24.048 24.945 6e-5 99.78" fill="none" marker-end="url(#Dot)" marker-mid="url(#marker5179)" marker-start="url(#marker5233)" stroke="#ad8605" stroke-width="1.1371"/>
 </g>
 <path d="m362.48 357.19v-63.5l-79.375-79.375h-71.438" fill="none" stroke="#ad8605" stroke-width="2"/>
 <g fill="none">
  <path d="m653.52 399.52-37.042 37.042-129.65-129.65h-50.271l-50.271 50.271h-267.23l-63.5 63.5-18.521-18.521" stroke="#0090d2" stroke-width="2"/>
  <path d="m653.52 399.52-37.042 37.042-129.65-129.65h-50.271l-50.271 50.271h-267.23l-63.5 63.5-18.521-18.521" stroke="#f97600" stroke-width=".7"/>
 </g>
 <path d="m346.6 534.46v116.42l42.333 42.333v100.54l-21.167 21.167v29.104" fill="none" stroke="#8fc31f" stroke-width="2"/>
 <g fill="none">
  <path d="m574.15 478.9-15.875 15.875v39.688l10.583 10.583v52.917l26.458 26.458" stroke="#6789ca" stroke-width="2"/>
  <path d="m574.15 478.9-15.875 15.875v39.688l10.583 10.583v52.917l26.458 26.458" stroke="#fff"/>
 </g>
 <g fill="none">
  <path d="m801.69 351.9v-103.19l26.458-26.458v-84.667" stroke="#b7c450" stroke-width="2"/>
  <path d="m801.69 351.9v-103.19l26.458-26.458v-84.667" stroke="#fff"/>
 </g>
 <g fill="none">
  <path d="m915.46 886.35 15.875 15.875h18.521l15.875-15.875 47.625 47.625h74.083l15.875-15.875v-84.667" stroke="#56ad2d" stroke-width="2"/>
  <path d="m915.46 886.35 15.875 15.875h18.521l15.875-15.875 47.625 47.625h74.083l15.875-15.875v-84.667" stroke="#fff"/>
 </g>
 <g fill="none" stroke-linecap="round" stroke-linejoin="round">
  <path d="m920.75 89.958h-39.688v-18.521h-18.521v-18.521h79.375l15.875-15.875h39.688l15.875 15.875v37.042" stroke="#fd8100" stroke-width="2"/>
  <path d="m920.75 89.958h-39.688v-18.521h-18.521v-18.521h79.375l15.875-15.875h39.688l15.875 15.875v37.042" stroke="#fff"/>
 </g>
 <path d="m119.06 293.69h42.333l26.458 26.458v283.1h84.667l13.229 13.229h37.042" fill="none" stroke="#f5a251" stroke-linecap="round" stroke-linejoin="round" stroke-width="2"/>
 <path d="m259.29 359.83v55.562l-21.167 21.167v132.29l-13.229 13.229v92.604l-113.77 113.77-63.5-63.5" fill="none" stroke="#759cce" stroke-linecap="round" stroke-linejoin="round" stroke-width="2"/>
 <path d="m912.81 718.34h246.06" fill="none" stroke="#0054a6" stroke-linecap="round" stroke-linejoin="round" stroke-width="2"/>
 <g fill="none" stroke="#178c72" stroke-linecap="round" stroke-linejoin="round" stroke-width="2">
  <path d="m1156.2 39.688v214.31l-21.167 21.167h-145.52l-42.333 42.333h-76.729l-15.875 15.875"/>
  <path d="m926.04 317.5-21.167-23.812v-50.271"/>
 </g>
 <g fill="none" stroke="#77c4a3" stroke-linecap="round" stroke-linejoin="round" stroke-width="2">
  <path d="m1156.2 560.92v-129.65l-111.12-111.12h-174.63l-42.333 42.333v23.812l-92.604 92.604h-71.438l-264.58-264.58v-203.73"/>
  <path d="m547.69 362.48 97.896 1e-5 10.583 11.906-1e-5 25.135"/>
 </g>
 <path d="m851.96 336.02-21.167 21.167v254h97.896l21.167 21.167v105.83l-15.875 15.875h-21.167v132.29l-21.167 21.167h-87.312l-60.854-60.854h-55.562l-37.042 37.042h-169.33l-39.688-39.688v-31.75l-15.875-15.875h-111.12l-15.875-15.875v-26.458l-18.521-18.521h-63.5l-137.58-137.58" fill="none" stroke="#fabe00" stroke-linecap="round" stroke-linejoin="round" stroke-width="2"/>
 <g fill="none" stroke="#d31145" stroke-width="2">
  <path d="m785.81 489.48 1e-5 103.19 124.35 125.68-1e-5 75.406-63.5 63.5h-21.167l-15.875-15.875" fill="none" stroke="#d31145" stroke-linecap="round" stroke-linejoin="round" stroke-width="2"/>
 </g>
 <path d="m349.25 338.67 15.875 15.875 31.75-31.75h21.167l187.85 187.85h132.29l23.812 23.812h112.45l15.875 15.875h46.302l39.688-39.688v-23.812h15.875l34.396-34.396" fill="none" stroke="#bdb092" stroke-linecap="round" stroke-linejoin="round" stroke-width="2"/>
 <path d="m957.79 418.04v76.729l-15.875 15.875 31.75 31.75v68.792l-21.167 21.167h37.042l13.229 13.229v23.812l-13.229 13.229h-37.042" fill="none" stroke="#e6186c" stroke-linecap="round" stroke-linejoin="round" stroke-width="2"/>
 <g fill="none" stroke="#747f00" stroke-width="2">
  <g fill="none" stroke="#747f00" stroke-width="2">
   <path d="m926.04 105.83-21.167 21.167 21.167 23.812v222.25l-34.396 34.396v71.438l-31.75 31.75h-111.12l-47.625 47.625h-79.375l-37.042-37.042h-47.625l-37.042 37.042h-92.604l-63.5-63.5h-156.1" fill="none" stroke="#747f00" stroke-linecap="round" stroke-linejoin="round" stroke-width="2"/>
  </g>
 </g>
 <path d="m971.02 288.4-26.458-26.458h-68.792l-52.917 52.917h-21.167l-23.812 23.812v39.688l-18.521 18.521v31.75l-18.521 18.521h-103.19l-44.979-44.979h-55.562l-15.875-15.875v-47.625l37.042-37.042h15.875l13.229-13.229v-15.875h-15.875l-13.229 13.229v15.875" fill="none" stroke="#cd7c2f" stroke-linecap="round" stroke-linejoin="round" stroke-width="2"/>
 <g fill="none" stroke="#996cac" stroke-linecap="round" stroke-linejoin="round" stroke-width="2">
  <path d="m383.65 317.5-18.521 18.521v21.167h44.979l26.458 26.458v31.75l10.583 10.583h47.625l47.625 47.625 124.35-124.35h42.333l50.271 50.271h46.302l22.49-21.167h39.688l60.854 60.854h47.625l18.521-18.521v-37.042h71.437l39.688 39.688"/>
  <path d="m976.31 439.21 18.521 18.521v52.917l18.521 18.521h42.333l15.875-15.875"/>
 </g>
 <g>
  <path d="m1018.6 187.85h-119.06l-148.17 148.17v47.625l-15.875 15.875h-74.083v58.208l18.521 18.521v166.69l-166.69 166.69-68.792-1e-5 -15.875-15.875h-111.12l-15.875-15.875" fill="none" stroke="#00a4e3" stroke-linecap="round" stroke-linejoin="round" stroke-width="2"/>
 </g>
 <path d="m349.25 214.31h26.458l63.5 63.5h26.458l34.396-34.396h42.333l84.667 84.667h60.854l23.812 23.812v26.458l91.281 91.281-17.198 17.198h-18.521l-29.104 29.104v79.375h129.65l39.688 39.688 103.19-103.19" fill="none" stroke="#ef7c1c" stroke-linecap="round" stroke-linejoin="round" stroke-width="2"/>
 <g fill="none" stroke="#00a84d" stroke-linecap="round" stroke-linejoin="round" stroke-width="2">
  <path d="m505.35 433.92 55.562-55.562 254 1e-5 87.312 87.312h21.167l15.875 15.875v31.75l-44.979 44.979h-153.46l-23.812 23.812h-148.17l-63.5-63.5z"/>
  <path d="m873.12 436.56v-23.812l-55.562-55.562h-15.875"/>
  <path d="m505.35 489.48-21.167-21.167h-26.458l-21.167-21.167v-29.104"/>
 </g>
 <g fill="none" stroke="#0052a4" stroke-linecap="round" stroke-linejoin="round" stroke-width="2">
  <path d="m690.56 26.458h193.15l18.521 18.521v238.12l-71.437 71.438-148.17-1e-5 -23.812 23.812 1e-5 74.083-39.688 39.688-31.75-1e-5h-26.458l-15.875-15.875-82.021 82.021v87.312l254 254v55.562l-21.167 21.167h-539.75"/>
  <path d="m486.83 534.46h-248.71l-15.875 15.875v18.521l-13.229 13.229h-116.42l-13.229 13.229"/>
  <path d="m463.02 613.83-31.75 31.75"/>
  <path d="m717.02 899.58 29.104 29.104"/>
 </g>
 <g fill="#fff" stroke="#000">
  <ellipse cx="211.67" cy="214.31" rx="2.1167" ry="2.1167"/>
  <ellipse cx="235.48" cy="214.31" rx="2.1167" ry="2.1167"/>
  <ellipse cx="259.29" cy="214.31" rx="2.1167" ry="2.1167"/>
  <ellipse cx="283.1" cy="214.31" rx="2.1167" ry="2.1167"/>
  <ellipse cx="298.98" cy="230.19" rx="2.1167" ry="2.1167"/>
  <ellipse cx="314.85" cy="246.06" rx="2.1167" ry="2.1167"/>
  <ellipse cx="330.73" cy="261.94" rx="2.1167" ry="2.1167"/>
  <ellipse cx="346.6" cy="277.81" rx="2.1167" ry="2.1167"/>
  <ellipse cx="362.48" cy="293.69" rx="2.1167" ry="2.1167"/>
  <ellipse cx="362.48" cy="357.19" rx="2.1167" ry="2.1167"/>
  <ellipse cx="653.52" cy="399.52" rx="2.1166" ry="2.1167"/>
  <ellipse cx="616.48" cy="436.56" rx="2.1166" ry="2.1167"/>
  <ellipse cx="600.6" cy="420.69" rx="2.1166" ry="2.1167"/>
  <ellipse cx="560.92" cy="381" rx="2.1166" ry="2.1167"/>
  <ellipse cx="518.58" cy="338.67" rx="2.1166" ry="2.1167"/>
  <ellipse cx="418.04" cy="325.44" rx="2.1166" ry="2.1167"/>
  <ellipse cx="367.77" cy="357.19" rx="2.1166" ry="2.1167"/>
  <ellipse cx="259.29" cy="357.19" rx="2.1166" ry="2.1167"/>
  <ellipse cx="187.85" cy="357.19" rx="2.1166" ry="2.1167"/>
  <ellipse cx="119.06" cy="357.19" rx="2.1166" ry="2.1167"/>
  <ellipse cx="103.19" cy="373.06" rx="2.1166" ry="2.1167"/>
  <ellipse cx="87.312" cy="388.94" rx="2.1166" ry="2.1167"/>
  <ellipse cx="72.76" cy="403.49" rx="2.1166" ry="2.1167"/>
  <ellipse cx="55.562" cy="420.69" rx="2.1166" ry="2.1167"/>
  <ellipse cx="37.042" cy="402.17" rx="2.1166" ry="2.1167"/>
  <ellipse cx="346.6" cy="534.46" rx="2.1167" ry="2.1166"/>
  <ellipse cx="346.6" cy="560.92" rx="2.1167" ry="2.1166"/>
  <ellipse cx="346.6" cy="590.02" rx="2.1167" ry="2.1166"/>
  <ellipse cx="346.6" cy="619.12" rx="2.1167" ry="2.1166"/>
  <ellipse cx="346.6" cy="650.88" rx="2.1167" ry="2.1166"/>
  <ellipse cx="367.77" cy="672.04" rx="2.1167" ry="2.1166"/>
  <ellipse cx="388.94" cy="693.21" rx="2.1167" ry="2.1166"/>
  <ellipse cx="388.94" cy="724.96" rx="2.1167" ry="2.1166"/>
  <ellipse cx="388.94" cy="756.71" rx="2.1167" ry="2.1166"/>
  <ellipse cx="388.94" cy="793.75" rx="2.1167" ry="2.1166"/>
  <ellipse cx="367.77" cy="844.02" rx="2.1167" ry="2.1166"/>
  <ellipse cx="367.77" cy="814.92" rx="2.1167" ry="2.1166"/>
  <ellipse cx="595.31" cy="624.42" rx="2.1167" ry="2.1167"/>
  <ellipse cx="582.08" cy="611.19" rx="2.1167" ry="2.1167"/>
  <ellipse cx="568.85" cy="597.96" rx="2.1167" ry="2.1167"/>
  <ellipse cx="568.85" cy="579.44" rx="2.1167" ry="2.1167"/>
  <ellipse cx="568.85" cy="560.92" rx="2.1167" ry="2.1167"/>
  <ellipse cx="568.85" cy="545.04" rx="2.1167" ry="2.1167"/>
  <ellipse cx="558.27" cy="534.46" rx="2.1167" ry="2.1167"/>
  <ellipse cx="558.27" cy="518.58" rx="2.1167" ry="2.1167"/>
  <ellipse cx="558.27" cy="506.68" rx="2.1167" ry="2.1167"/>
  <ellipse cx="558.27" cy="494.77" rx="2.1167" ry="2.1167"/>
  <ellipse cx="574.15" cy="478.9" rx="2.1167" ry="2.1167"/>
  <ellipse cx="801.69" cy="351.9" rx="2.1167" ry="2.1167"/>
  <ellipse cx="801.69" cy="317.5" rx="2.1167" ry="2.1167"/>
  <ellipse cx="801.69" cy="288.4" rx="2.1167" ry="2.1167"/>
  <ellipse cx="801.69" cy="267.23" rx="2.1167" ry="2.1167"/>
  <ellipse cx="801.69" cy="248.71" rx="2.1167" ry="2.1167"/>
  <ellipse cx="814.92" cy="235.48" rx="2.1167" ry="2.1167"/>
  <ellipse cx="828.15" cy="222.25" rx="2.1167" ry="2.1167"/>
  <ellipse cx="828.15" cy="209.02" rx="2.1167" ry="2.1167"/>
  <ellipse cx="828.15" cy="194.47" rx="2.1167" ry="2.1167"/>
  <ellipse cx="828.15" cy="181.24" rx="2.1167" ry="2.1167"/>
  <ellipse cx="828.15" cy="166.69" rx="2.1167" ry="2.1167"/>
  <ellipse cx="828.15" cy="152.14" rx="2.1167" ry="2.1167"/>
  <ellipse cx="828.15" cy="137.58" rx="2.1167" ry="2.1167"/>
  <circle cx="1103.3" cy="833.44" r="2.1167"/>
  <circle cx="1103.3" cy="854.6" r="2.1167"/>
  <circle cx="1103.3" cy="875.77" r="2.1167"/>
  <circle cx="1103.3" cy="896.94" r="2.1167"/>
  <circle cx="1103.3" cy="918.1" r="2.1167"/>
  <circle cx="1087.4" cy="933.98" r="2.1167"/>
  <circle cx="1068.9" cy="933.98" r="2.1167"/>
  <circle cx="1050.4" cy="933.98" r="2.1167"/>
  <circle cx="1031.9" cy="933.98" r="2.1167"/>
  <circle cx="1013.4" cy="933.98" r="2.1167"/>
  <circle cx="997.48" cy="918.1" r="2.1167"/>
  <circle cx="981.6" cy="902.23" r="2.1167"/>
  <circle cx="965.73" cy="886.35" r="2.1167"/>
  <circle cx="949.85" cy="902.23" r="2.1167"/>
  <circle cx="931.33" cy="902.23" r="2.1167"/>
  <circle cx="915.46" cy="886.35" r="2.1167"/>
  <g stroke-linecap="round" stroke-linejoin="round">
   <ellipse cx="920.75" cy="89.958" rx="2.1167" ry="2.1167"/>
   <ellipse cx="899.58" cy="89.958" rx="2.1167" ry="2.1167"/>
   <ellipse cx="881.06" cy="89.958" rx="2.1167" ry="2.1167"/>
   <ellipse cx="881.06" cy="71.438" rx="2.1167" ry="2.1167"/>
   <ellipse cx="862.54" cy="71.438" rx="2.1167" ry="2.1167"/>
   <ellipse cx="862.54" cy="52.917" rx="2.1167" ry="2.1167"/>
   <ellipse cx="922.07" cy="52.917" rx="2.1167" ry="2.1167"/>
   <ellipse cx="941.92" cy="52.917" rx="2.1167" ry="2.1167"/>
   <ellipse cx="957.79" cy="37.042" rx="2.1167" ry="2.1167"/>
   <ellipse cx="976.31" cy="37.042" rx="2.1167" ry="2.1167"/>
   <ellipse cx="997.48" cy="37.042" rx="2.1167" ry="2.1167"/>
   <ellipse cx="1013.4" cy="52.917" rx="2.1167" ry="2.1167"/>
   <ellipse cx="1013.4" cy="71.438" rx="2.1167" ry="2.1167"/>
   <ellipse cx="1013.4" cy="89.958" rx="2.1167" ry="2.1167"/>
  </g>
  <g stroke-linecap="round" stroke-linejoin="round">
   <circle cx="119.06" cy="293.69" r="2.1167"/>
   <ellipse cx="140.23" cy="293.69" rx="2.1167" ry="2.1167"/>
   <ellipse cx="161.4" cy="293.69" rx="2.1167" ry="2.1167"/>
   <ellipse cx="174.62" cy="306.92" rx="2.1167" ry="2.1167"/>
   <ellipse cx="187.85" cy="320.15" rx="2.1167" ry="2.1167"/>
   <ellipse cx="187.85" cy="338.67" rx="2.1167" ry="2.1167"/>
   <ellipse cx="187.85" cy="359.83" rx="2.1167" ry="2.1167"/>
   <ellipse cx="187.85" cy="383.65" rx="2.1167" ry="2.1167"/>
   <ellipse cx="187.85" cy="404.81" rx="2.1167" ry="2.1167"/>
   <ellipse cx="187.85" cy="428.62" rx="2.1167" ry="2.1167"/>
   <ellipse cx="187.85" cy="451.11" rx="2.1167" ry="2.1167"/>
   <ellipse cx="187.85" cy="473.6" rx="2.1167" ry="2.1167"/>
   <ellipse cx="187.85" cy="497.42" rx="2.1167" ry="2.1167"/>
   <ellipse cx="187.85" cy="514.61" rx="2.1167" ry="2.1167"/>
   <ellipse cx="187.85" cy="533.14" rx="2.1167" ry="2.1167"/>
   <ellipse cx="187.85" cy="549.01" rx="2.1167" ry="2.1167"/>
   <ellipse cx="187.85" cy="567.53" rx="2.1167" ry="2.1167"/>
   <ellipse cx="187.85" cy="584.73" rx="2.1167" ry="2.1167"/>
   <ellipse cx="187.85" cy="603.25" rx="2.1167" ry="2.1167"/>
   <ellipse cx="206.38" cy="603.25" rx="2.1167" ry="2.1167"/>
   <ellipse cx="256.65" cy="603.25" rx="2.1167" ry="2.1167"/>
   <ellipse cx="272.52" cy="603.25" rx="2.1167" ry="2.1167"/>
   <ellipse cx="285.75" cy="616.48" rx="2.1167" ry="2.1167"/>
   <ellipse cx="304.27" cy="616.48" rx="2.1167" ry="2.1167"/>
   <ellipse cx="322.79" cy="616.48" rx="2.1167" ry="2.1167"/>
   <ellipse cx="224.9" cy="603.25" rx="2.1167" ry="2.1167"/>
   <ellipse cx="240.77" cy="603.25" rx="2.1167" ry="2.1167"/>
  </g>
  <g stroke-linecap="round" stroke-linejoin="round">
   <ellipse cx="259.29" cy="359.83" rx="2.1167" ry="2.1167"/>
   <ellipse cx="259.29" cy="378.35" rx="2.1167" ry="2.1167"/>
   <ellipse cx="259.29" cy="396.88" rx="2.1167" ry="2.1167"/>
   <ellipse cx="259.29" cy="415.4" rx="2.1167" ry="2.1167"/>
   <ellipse cx="238.12" cy="436.56" rx="2.1167" ry="2.1167"/>
   <ellipse cx="238.12" cy="455.08" rx="2.1167" ry="2.1167"/>
   <ellipse cx="238.12" cy="473.6" rx="2.1167" ry="2.1167"/>
   <ellipse cx="238.12" cy="492.12" rx="2.1167" ry="2.1167"/>
   <ellipse cx="238.12" cy="513.29" rx="2.1167" ry="2.1167"/>
   <ellipse cx="238.12" cy="531.81" rx="2.1167" ry="2.1167"/>
   <ellipse cx="238.12" cy="550.33" rx="2.1167" ry="2.1167"/>
   <ellipse cx="238.12" cy="568.85" rx="2.1167" ry="2.1167"/>
   <ellipse cx="224.9" cy="582.08" rx="2.1167" ry="2.1167"/>
   <ellipse cx="224.9" cy="605.9" rx="2.1167" ry="2.1167"/>
   <ellipse cx="224.9" cy="621.77" rx="2.1167" ry="2.1167"/>
   <ellipse cx="224.9" cy="637.65" rx="2.1167" ry="2.1167"/>
   <ellipse cx="224.9" cy="656.17" rx="2.1167" ry="2.1167"/>
   <ellipse cx="224.9" cy="674.69" rx="2.1167" ry="2.1167"/>
   <ellipse cx="209.02" cy="690.56" rx="2.1167" ry="2.1167"/>
   <ellipse cx="193.15" cy="706.44" rx="2.1167" ry="2.1167"/>
   <ellipse cx="174.62" cy="724.96" rx="2.1167" ry="2.1167"/>
   <ellipse cx="158.75" cy="740.83" rx="2.1167" ry="2.1167"/>
   <ellipse cx="142.87" cy="756.71" rx="2.1167" ry="2.1167"/>
   <ellipse cx="127" cy="772.58" rx="2.1167" ry="2.1167"/>
   <ellipse cx="111.12" cy="788.46" rx="2.1167" ry="2.1167"/>
   <ellipse cx="95.25" cy="772.58" rx="2.1167" ry="2.1167"/>
   <ellipse cx="79.375" cy="756.71" rx="2.1167" ry="2.1167"/>
   <ellipse cx="63.5" cy="740.83" rx="2.1167" ry="2.1167"/>
   <ellipse cx="47.625" cy="724.96" rx="2.1167" ry="2.1167"/>
  </g>
  <g stroke-linecap="round" stroke-linejoin="round">
   <circle cx="912.81" cy="718.34" r="2.1167"/>
   <circle cx="947.21" cy="718.34" r="2.1167"/>
   <circle cx="971.02" cy="718.34" r="2.1167"/>
   <circle cx="994.83" cy="718.34" r="2.1167"/>
   <circle cx="1017.3" cy="718.34" r="2.1167"/>
   <circle cx="1041.1" cy="718.34" r="2.1167"/>
   <circle cx="1064.9" cy="718.34" r="2.1167"/>
   <circle cx="1088.8" cy="718.34" r="2.1167"/>
   <circle cx="1111.2" cy="718.34" r="2.1167"/>
   <circle cx="1135.1" cy="718.34" r="2.1167"/>
   <circle cx="1158.9" cy="718.34" r="2.1167"/>
  </g>
  <g stroke-linecap="round" stroke-linejoin="round">
   <ellipse cx="989.54" cy="275.17" rx="2.1166" ry="2.1167"/>
   <ellipse cx="1010.7" cy="275.17" rx="2.1166" ry="2.1167"/>
   <ellipse cx="1031.9" cy="275.17" rx="2.1166" ry="2.1167"/>
   <ellipse cx="1053" cy="275.17" rx="2.1166" ry="2.1167"/>
   <ellipse cx="1074.2" cy="275.17" rx="2.1166" ry="2.1167"/>
   <ellipse cx="1092.7" cy="275.17" rx="2.1166" ry="2.1167"/>
   <ellipse cx="1113.9" cy="275.17" rx="2.1166" ry="2.1167"/>
   <ellipse cx="1135.1" cy="275.17" rx="2.1166" ry="2.1167"/>
   <ellipse cx="1156.2" cy="254" rx="2.1166" ry="2.1167"/>
   <ellipse cx="1156.2" cy="230.19" rx="2.1166" ry="2.1167"/>
   <ellipse cx="1156.2" cy="206.38" rx="2.1166" ry="2.1167"/>
   <ellipse cx="1156.2" cy="182.56" rx="2.1166" ry="2.1167"/>
   <ellipse cx="1156.2" cy="158.75" rx="2.1166" ry="2.1167"/>
   <ellipse cx="1156.2" cy="134.94" rx="2.1166" ry="2.1167"/>
   <ellipse cx="1156.2" cy="111.12" rx="2.1166" ry="2.1167"/>
   <ellipse cx="1156.2" cy="87.312" rx="2.1166" ry="2.1167"/>
   <ellipse cx="1156.2" cy="63.5" rx="2.1166" ry="2.1167"/>
   <ellipse cx="1156.2" cy="39.687" rx="2.1166" ry="2.1167"/>
   <ellipse cx="973.67" cy="291.04" rx="2.1166" ry="2.1167"/>
   <ellipse cx="947.21" cy="317.5" rx="2.1166" ry="2.1167"/>
   <ellipse cx="926.04" cy="317.5" rx="2.1166" ry="2.1167"/>
   <ellipse cx="904.87" cy="243.42" rx="2.1166" ry="2.1167"/>
   <ellipse cx="899.58" cy="317.5" rx="2.1166" ry="2.1167"/>
   <ellipse cx="870.48" cy="317.5" rx="2.1166" ry="2.1167"/>
   <ellipse cx="854.6" cy="332.05" rx="2.1166" ry="2.1167"/>
  </g>
  <g stroke-linecap="round" stroke-linejoin="round">
   <ellipse cx="973.67" cy="320.15" rx="2.1166" ry="2.1167"/>
   <ellipse cx="997.48" cy="320.15" rx="2.1166" ry="2.1167"/>
   <ellipse cx="1021.3" cy="320.15" rx="2.1166" ry="2.1167"/>
   <ellipse cx="1045.1" cy="320.15" rx="2.1166" ry="2.1167"/>
   <ellipse cx="1061" cy="336.02" rx="2.1166" ry="2.1167"/>
   <ellipse cx="1076.9" cy="351.9" rx="2.1166" ry="2.1167"/>
   <ellipse cx="1092.7" cy="367.77" rx="2.1166" ry="2.1167"/>
   <ellipse cx="1108.6" cy="383.65" rx="2.1166" ry="2.1167"/>
   <ellipse cx="1124.5" cy="399.52" rx="2.1166" ry="2.1167"/>
   <ellipse cx="1140.4" cy="415.4" rx="2.1166" ry="2.1167"/>
   <ellipse cx="1156.2" cy="431.27" rx="2.1166" ry="2.1167"/>
   <ellipse cx="1156.2" cy="453.76" rx="2.1166" ry="2.1167"/>
   <ellipse cx="1156.2" cy="470.96" rx="2.1166" ry="2.1167"/>
   <ellipse cx="1156.2" cy="492.12" rx="2.1166" ry="2.1167"/>
   <ellipse cx="1156.2" cy="514.61" rx="2.1166" ry="2.1167"/>
   <ellipse cx="1156.2" cy="537.1" rx="2.1166" ry="2.1167"/>
   <ellipse cx="1156.2" cy="560.92" rx="2.1166" ry="2.1167"/>
   <ellipse cx="947.21" cy="320.15" rx="2.1166" ry="2.1167"/>
   <ellipse cx="926.04" cy="320.15" rx="2.1166" ry="2.1167"/>
   <ellipse cx="899.58" cy="320.15" rx="2.1166" ry="2.1167"/>
   <ellipse cx="870.48" cy="320.15" rx="2.1166" ry="2.1167"/>
   <ellipse cx="854.6" cy="336.02" rx="2.1166" ry="2.1167"/>
   <ellipse cx="828.15" cy="386.29" rx="2.1166" ry="2.1167"/>
   <ellipse cx="801.69" cy="412.75" rx="2.1166" ry="2.1167"/>
   <ellipse cx="775.23" cy="439.21" rx="2.1166" ry="2.1167"/>
   <ellipse cx="751.42" cy="463.02" rx="2.1166" ry="2.1167"/>
   <ellipse cx="714.38" cy="478.9" rx="2.1166" ry="2.1167"/>
   <ellipse cx="679.98" cy="478.9" rx="2.1166" ry="2.1167"/>
   <ellipse cx="648.23" cy="463.02" rx="2.1166" ry="2.1167"/>
   <ellipse cx="619.12" cy="433.92" rx="2.1166" ry="2.1167"/>
   <ellipse cx="576.79" cy="391.58" rx="2.1166" ry="2.1167"/>
   <ellipse cx="563.56" cy="378.35" rx="2.1166" ry="2.1167"/>
   <ellipse cx="547.69" cy="362.48" rx="2.1166" ry="2.1167"/>
   <ellipse cx="603.25" cy="362.48" rx="2.1166" ry="2.1167"/>
   <ellipse cx="656.17" cy="399.52" rx="2.1166" ry="2.1167"/>
   <ellipse cx="521.23" cy="336.02" rx="2.1166" ry="2.1167"/>
   <ellipse cx="509.32" cy="324.11" rx="2.1166" ry="2.1167"/>
   <ellipse cx="497.42" cy="312.21" rx="2.1166" ry="2.1167"/>
   <ellipse cx="486.83" cy="301.62" rx="2.1166" ry="2.1167"/>
   <ellipse cx="474.93" cy="289.72" rx="2.1166" ry="2.1167"/>
   <ellipse cx="603.25" cy="418.04" rx="2.1166" ry="2.1167"/>
   <ellipse cx="463.02" cy="277.81" rx="2.1166" ry="2.1167"/>
   <ellipse cx="447.15" cy="261.94" rx="2.1166" ry="2.1167"/>
   <ellipse cx="431.27" cy="246.06" rx="2.1166" ry="2.1167"/>
   <ellipse cx="415.4" cy="230.19" rx="2.1166" ry="2.1167"/>
   <ellipse cx="399.52" cy="214.31" rx="2.1166" ry="2.1167"/>
   <ellipse cx="399.52" cy="194.47" rx="2.1166" ry="2.1167"/>
   <ellipse cx="399.52" cy="173.3" rx="2.1166" ry="2.1167"/>
   <ellipse cx="399.52" cy="153.46" rx="2.1166" ry="2.1167"/>
   <ellipse cx="399.52" cy="132.29" rx="2.1166" ry="2.1167"/>
   <ellipse cx="399.52" cy="112.45" rx="2.1166" ry="2.1167"/>
   <ellipse cx="399.52" cy="91.281" rx="2.1166" ry="2.1167"/>
   <ellipse cx="399.52" cy="71.438" rx="2.1166" ry="2.1167"/>
   <ellipse cx="399.52" cy="51.594" rx="2.1166" ry="2.1167"/>
   <ellipse cx="399.52" cy="30.427" rx="2.1166" ry="2.1167"/>
   <ellipse cx="399.52" cy="10.583" rx="2.1166" ry="2.1167"/>
  </g>
  <g stroke-linecap="round" stroke-linejoin="round">
   <ellipse cx="851.96" cy="336.02" rx="2.1166" ry="2.1167"/>
   <ellipse cx="830.79" cy="386.29" rx="2.1166" ry="2.1167"/>
   <ellipse cx="830.79" cy="423.33" rx="2.1166" ry="2.1167"/>
   <ellipse cx="830.79" cy="469.64" rx="2.1166" ry="2.1167"/>
   <ellipse cx="830.79" cy="531.81" rx="2.1166" ry="2.1167"/>
   <ellipse cx="830.79" cy="555.62" rx="2.1166" ry="2.1167"/>
   <ellipse cx="830.79" cy="574.15" rx="2.1166" ry="2.1167"/>
   <ellipse cx="830.79" cy="592.67" rx="2.1166" ry="2.1167"/>
   <ellipse cx="830.79" cy="611.19" rx="2.1166" ry="2.1167"/>
   <ellipse cx="849.31" cy="611.19" rx="2.1166" ry="2.1167"/>
   <ellipse cx="867.83" cy="611.19" rx="2.1166" ry="2.1167"/>
   <ellipse cx="886.35" cy="611.19" rx="2.1166" ry="2.1167"/>
   <ellipse cx="928.69" cy="611.19" rx="2.1166" ry="2.1167"/>
   <ellipse cx="949.85" cy="632.35" rx="2.1166" ry="2.1167"/>
   <ellipse cx="949.85" cy="648.23" rx="2.1166" ry="2.1167"/>
   <ellipse cx="949.85" cy="666.75" rx="2.1166" ry="2.1167"/>
   <ellipse cx="949.85" cy="682.62" rx="2.1166" ry="2.1167"/>
   <ellipse cx="949.85" cy="701.15" rx="2.1166" ry="2.1167"/>
   <ellipse cx="949.85" cy="718.34" rx="2.1166" ry="2.1167"/>
   <ellipse cx="949.85" cy="738.19" rx="2.1166" ry="2.1167"/>
   <ellipse cx="933.98" cy="754.06" rx="2.1166" ry="2.1167"/>
   <ellipse cx="912.81" cy="754.06" rx="2.1166" ry="2.1167"/>
   <ellipse cx="912.81" cy="772.58" rx="2.1166" ry="2.1167"/>
   <ellipse cx="912.81" cy="793.75" rx="2.1166" ry="2.1167"/>
   <ellipse cx="912.81" cy="812.27" rx="2.1166" ry="2.1167"/>
   <ellipse cx="912.81" cy="830.79" rx="2.1166" ry="2.1167"/>
   <ellipse cx="912.81" cy="849.31" rx="2.1166" ry="2.1167"/>
   <ellipse cx="912.81" cy="867.83" rx="2.1166" ry="2.1167"/>
   <ellipse cx="912.81" cy="886.35" rx="2.1166" ry="2.1167"/>
   <ellipse cx="883.71" cy="907.52" rx="2.1166" ry="2.1167"/>
   <ellipse cx="857.25" cy="907.52" rx="2.1166" ry="2.1167"/>
   <ellipse cx="828.15" cy="907.52" rx="2.1166" ry="2.1167"/>
   <ellipse cx="796.4" cy="899.58" rx="2.1166" ry="2.1167"/>
   <ellipse cx="775.23" cy="878.42" rx="2.1166" ry="2.1167"/>
   <ellipse cx="754.06" cy="857.25" rx="2.1166" ry="2.1167"/>
   <ellipse cx="717.02" cy="846.67" rx="2.1166" ry="2.1167"/>
   <ellipse cx="677.33" cy="857.25" rx="2.1166" ry="2.1167"/>
   <ellipse cx="632.35" cy="883.71" rx="2.1166" ry="2.1167"/>
   <ellipse cx="590.02" cy="883.71" rx="2.1166" ry="2.1167"/>
   <ellipse cx="547.69" cy="883.71" rx="2.1166" ry="2.1167"/>
   <ellipse cx="505.35" cy="883.71" rx="2.1166" ry="2.1167"/>
   <ellipse cx="468.31" cy="870.48" rx="2.1166" ry="2.1167"/>
   <ellipse cx="441.85" cy="844.02" rx="2.1166" ry="2.1167"/>
   <ellipse cx="441.85" cy="812.27" rx="2.1166" ry="2.1167"/>
   <ellipse cx="425.98" cy="796.4" rx="2.1166" ry="2.1167"/>
   <ellipse cx="388.94" cy="796.4" rx="2.1166" ry="2.1167"/>
   <ellipse cx="351.9" cy="796.4" rx="2.1166" ry="2.1167"/>
   <ellipse cx="314.85" cy="796.4" rx="2.1166" ry="2.1167"/>
   <ellipse cx="298.98" cy="780.52" rx="2.1166" ry="2.1167"/>
   <ellipse cx="298.98" cy="754.06" rx="2.1166" ry="2.1167"/>
   <ellipse cx="280.46" cy="735.54" rx="2.1166" ry="2.1167"/>
   <ellipse cx="259.29" cy="735.54" rx="2.1166" ry="2.1167"/>
   <ellipse cx="238.12" cy="735.54" rx="2.1166" ry="2.1167"/>
   <ellipse cx="216.96" cy="735.54" rx="2.1166" ry="2.1167"/>
   <ellipse cx="203.73" cy="722.31" rx="2.1166" ry="2.1167"/>
   <ellipse cx="190.5" cy="709.08" rx="2.1166" ry="2.1167"/>
   <ellipse cx="171.98" cy="690.56" rx="2.1166" ry="2.1167"/>
   <ellipse cx="153.46" cy="672.04" rx="2.1166" ry="2.1167"/>
   <ellipse cx="134.94" cy="653.52" rx="2.1166" ry="2.1167"/>
   <ellipse cx="116.42" cy="635" rx="2.1166" ry="2.1167"/>
   <ellipse cx="97.896" cy="616.48" rx="2.1166" ry="2.1167"/>
   <ellipse cx="79.375" cy="597.96" rx="2.1166" ry="2.1167"/>
   <ellipse cx="830.79" cy="513.29" rx="2.1166" ry="2.1167"/>
  </g>
  <g stroke-linecap="round" stroke-linejoin="round">
   <ellipse cx="785.81" cy="489.48" rx="2.1167" ry="2.1167"/>
   <ellipse cx="785.81" cy="513.29" rx="2.1167" ry="2.1167"/>
   <ellipse cx="785.81" cy="537.1" rx="2.1167" ry="2.1167"/>
   <ellipse cx="785.81" cy="560.92" rx="2.1167" ry="2.1167"/>
   <ellipse cx="785.81" cy="592.67" rx="2.1167" ry="2.1167"/>
   <ellipse cx="809.62" cy="616.48" rx="2.1167" ry="2.1167"/>
   <ellipse cx="910.17" cy="718.34" rx="2.1167" ry="2.1167"/>
   <ellipse cx="829.47" cy="636.32" rx="2.1167" ry="2.1167"/>
   <ellipse cx="910.17" cy="754.06" rx="2.1167" ry="2.1167"/>
   <ellipse cx="910.17" cy="793.75" rx="2.1167" ry="2.1167"/>
   <ellipse cx="894.29" cy="809.62" rx="2.1167" ry="2.1167"/>
   <ellipse cx="862.54" cy="841.38" rx="2.1167" ry="2.1167"/>
   <ellipse cx="846.67" cy="857.25" rx="2.1167" ry="2.1167"/>
   <ellipse cx="825.5" cy="857.25" rx="2.1167" ry="2.1167"/>
   <ellipse cx="809.62" cy="841.38" rx="2.1167" ry="2.1167"/>
   <ellipse cx="878.42" cy="825.5" rx="2.1167" ry="2.1167"/>
  </g>
  <g stroke-linecap="round" stroke-linejoin="round">
   <ellipse cx="349.25" cy="338.67" rx="2.1167" ry="2.1167"/>
   <ellipse cx="365.12" cy="354.54" rx="2.1167" ry="2.1167"/>
   <ellipse cx="381" cy="338.67" rx="2.1167" ry="2.1167"/>
   <ellipse cx="396.88" cy="322.79" rx="2.1167" ry="2.1167"/>
   <ellipse cx="418.04" cy="322.79" rx="2.1167" ry="2.1167"/>
   <ellipse cx="431.27" cy="336.02" rx="2.1167" ry="2.1167"/>
   <ellipse cx="443.18" cy="347.93" rx="2.1167" ry="2.1167"/>
   <ellipse cx="455.08" cy="359.83" rx="2.1167" ry="2.1167"/>
   <ellipse cx="468.31" cy="373.06" rx="2.1167" ry="2.1167"/>
   <ellipse cx="481.54" cy="386.29" rx="2.1167" ry="2.1167"/>
   <ellipse cx="493.45" cy="398.2" rx="2.1167" ry="2.1167"/>
   <ellipse cx="505.35" cy="410.1" rx="2.1167" ry="2.1167"/>
   <ellipse cx="518.58" cy="423.33" rx="2.1167" ry="2.1167"/>
   <ellipse cx="539.75" cy="444.5" rx="2.1167" ry="2.1167"/>
   <ellipse cx="571.5" cy="476.25" rx="2.1167" ry="2.1167"/>
   <ellipse cx="555.62" cy="460.38" rx="2.1167" ry="2.1167"/>
   <ellipse cx="590.02" cy="494.77" rx="2.1167" ry="2.1167"/>
   <ellipse cx="621.77" cy="510.65" rx="2.1167" ry="2.1167"/>
   <ellipse cx="650.88" cy="510.65" rx="2.1167" ry="2.1167"/>
   <ellipse cx="677.33" cy="510.65" rx="2.1167" ry="2.1167"/>
   <ellipse cx="698.5" cy="510.65" rx="2.1167" ry="2.1167"/>
   <ellipse cx="717.02" cy="510.65" rx="2.1167" ry="2.1167"/>
   <ellipse cx="738.19" cy="510.65" rx="2.1167" ry="2.1167"/>
   <ellipse cx="762" cy="534.46" rx="2.1167" ry="2.1167"/>
   <ellipse cx="785.81" cy="534.46" rx="2.1167" ry="2.1167"/>
   <ellipse cx="808.3" cy="534.46" rx="2.1167" ry="2.1167"/>
   <ellipse cx="830.79" cy="534.46" rx="2.1167" ry="2.1167"/>
   <ellipse cx="849.31" cy="534.46" rx="2.1167" ry="2.1167"/>
   <ellipse cx="867.83" cy="534.46" rx="2.1167" ry="2.1167"/>
   <ellipse cx="899.58" cy="550.33" rx="2.1167" ry="2.1167"/>
   <ellipse cx="923.4" cy="550.33" rx="2.1167" ry="2.1167"/>
   <ellipse cx="944.56" cy="542.4" rx="2.1167" ry="2.1167"/>
   <ellipse cx="976.31" cy="510.65" rx="2.1167" ry="2.1167"/>
   <ellipse cx="957.79" cy="529.17" rx="2.1167" ry="2.1167"/>
   <ellipse cx="976.31" cy="486.83" rx="2.1167" ry="2.1167"/>
   <ellipse cx="992.19" cy="486.83" rx="2.1167" ry="2.1167"/>
   <ellipse cx="1010.7" cy="468.31" rx="2.1167" ry="2.1167"/>
   <ellipse cx="1026.6" cy="452.44" rx="2.1167" ry="2.1167"/>
  </g>
  <g stroke-linecap="round" stroke-linejoin="round">
   <ellipse cx="957.79" cy="418.04" rx="2.1166" ry="2.1167"/>
   <ellipse cx="957.79" cy="441.85" rx="2.1166" ry="2.1167"/>
   <ellipse cx="957.79" cy="468.31" rx="2.1166" ry="2.1167"/>
   <ellipse cx="957.79" cy="494.77" rx="2.1166" ry="2.1167"/>
   <ellipse cx="941.92" cy="510.65" rx="2.1166" ry="2.1167"/>
   <ellipse cx="957.79" cy="526.52" rx="2.1166" ry="2.1167"/>
   <ellipse cx="973.67" cy="542.4" rx="2.1166" ry="2.1167"/>
   <ellipse cx="973.67" cy="566.21" rx="2.1166" ry="2.1167"/>
   <ellipse cx="973.67" cy="590.02" rx="2.1166" ry="2.1167"/>
   <ellipse cx="973.67" cy="611.19" rx="2.1166" ry="2.1167"/>
   <ellipse cx="952.5" cy="632.35" rx="2.1166" ry="2.1167"/>
   <ellipse cx="971.02" cy="632.35" rx="2.1166" ry="2.1167"/>
   <ellipse cx="989.54" cy="632.35" rx="2.1166" ry="2.1167"/>
   <ellipse cx="1002.8" cy="645.58" rx="2.1166" ry="2.1167"/>
   <ellipse cx="1002.8" cy="669.4" rx="2.1166" ry="2.1167"/>
   <ellipse cx="989.54" cy="682.62" rx="2.1166" ry="2.1167"/>
   <ellipse cx="971.02" cy="682.62" rx="2.1166" ry="2.1167"/>
   <ellipse cx="952.5" cy="682.62" rx="2.1166" ry="2.1167"/>
  </g>
  <g stroke-linecap="round" stroke-linejoin="round">
   <ellipse cx="926.04" cy="105.83" rx="2.1166" ry="2.1167"/>
   <ellipse cx="904.87" cy="127" rx="2.1166" ry="2.1167"/>
   <ellipse cx="926.04" cy="150.81" rx="2.1166" ry="2.1167"/>
   <ellipse cx="926.04" cy="169.33" rx="2.1166" ry="2.1167"/>
   <ellipse cx="926.04" cy="187.85" rx="2.1166" ry="2.1167"/>
   <ellipse cx="926.04" cy="206.38" rx="2.1166" ry="2.1167"/>
   <ellipse cx="926.04" cy="224.9" rx="2.1166" ry="2.1167"/>
   <ellipse cx="926.04" cy="243.42" rx="2.1166" ry="2.1167"/>
   <ellipse cx="926.04" cy="261.94" rx="2.1166" ry="2.1167"/>
   <ellipse cx="926.04" cy="280.46" rx="2.1166" ry="2.1167"/>
   <ellipse cx="926.04" cy="298.98" rx="2.1166" ry="2.1167"/>
   <ellipse cx="926.04" cy="322.79" rx="2.1166" ry="2.1167"/>
   <ellipse cx="926.04" cy="341.31" rx="2.1166" ry="2.1167"/>
   <ellipse cx="926.04" cy="362.48" rx="2.1166" ry="2.1167"/>
   <ellipse cx="918.1" cy="381" rx="2.1166" ry="2.1167"/>
   <ellipse cx="904.87" cy="394.23" rx="2.1166" ry="2.1167"/>
   <ellipse cx="891.65" cy="407.46" rx="2.1166" ry="2.1167"/>
   <ellipse cx="891.65" cy="428.62" rx="2.1166" ry="2.1167"/>
   <ellipse cx="891.65" cy="449.79" rx="2.1166" ry="2.1167"/>
   <ellipse cx="891.65" cy="478.9" rx="2.1166" ry="2.1167"/>
   <ellipse cx="859.9" cy="510.65" rx="2.1166" ry="2.1167"/>
   <ellipse cx="830.79" cy="510.65" rx="2.1166" ry="2.1167"/>
   <ellipse cx="808.3" cy="510.65" rx="2.1166" ry="2.1167"/>
   <ellipse cx="785.81" cy="510.65" rx="2.1166" ry="2.1167"/>
   <ellipse cx="762" cy="510.65" rx="2.1166" ry="2.1167"/>
   <ellipse cx="738.19" cy="521.23" rx="2.1166" ry="2.1167"/>
   <ellipse cx="711.73" cy="547.69" rx="2.1166" ry="2.1167"/>
   <ellipse cx="650.87" cy="558.27" rx="2.1166" ry="2.1167"/>
   <ellipse cx="621.77" cy="558.27" rx="2.1166" ry="2.1167"/>
   <ellipse cx="603.25" cy="539.75" rx="2.1166" ry="2.1167"/>
   <ellipse cx="584.73" cy="521.23" rx="2.1166" ry="2.1167"/>
   <ellipse cx="558.27" cy="521.23" rx="2.1166" ry="2.1167"/>
   <ellipse cx="537.1" cy="521.23" rx="2.1166" ry="2.1167"/>
   <ellipse cx="523.88" cy="534.46" rx="2.1166" ry="2.1167"/>
   <ellipse cx="508" cy="550.33" rx="2.1166" ry="2.1167"/>
   <ellipse cx="486.83" cy="558.27" rx="2.1166" ry="2.1167"/>
   <ellipse cx="465.67" cy="558.27" rx="2.1166" ry="2.1167"/>
   <ellipse cx="444.5" cy="558.27" rx="2.1166" ry="2.1167"/>
   <ellipse cx="423.33" cy="558.27" rx="2.1166" ry="2.1167"/>
   <ellipse cx="399.52" cy="550.33" rx="2.1166" ry="2.1167"/>
   <ellipse cx="383.65" cy="534.46" rx="2.1166" ry="2.1167"/>
   <ellipse cx="367.77" cy="518.58" rx="2.1166" ry="2.1167"/>
   <ellipse cx="351.9" cy="502.71" rx="2.1166" ry="2.1167"/>
   <ellipse cx="333.38" cy="494.77" rx="2.1166" ry="2.1167"/>
   <ellipse cx="317.5" cy="494.77" rx="2.1166" ry="2.1167"/>
   <ellipse cx="301.62" cy="494.77" rx="2.1166" ry="2.1167"/>
   <ellipse cx="285.75" cy="494.77" rx="2.1166" ry="2.1167"/>
   <ellipse cx="269.88" cy="494.77" rx="2.1166" ry="2.1167"/>
   <ellipse cx="254" cy="494.77" rx="2.1166" ry="2.1167"/>
   <ellipse cx="238.12" cy="494.77" rx="2.1166" ry="2.1167"/>
   <ellipse cx="214.31" cy="494.77" rx="2.1166" ry="2.1167"/>
   <ellipse cx="187.85" cy="494.77" rx="2.1166" ry="2.1167"/>
  </g>
  <g stroke-linecap="round" stroke-linejoin="round">
   <ellipse cx="971.02" cy="288.4" rx="2.1166" ry="2.1167"/>
   <ellipse cx="957.79" cy="275.17" rx="2.1166" ry="2.1167"/>
   <ellipse cx="944.56" cy="261.94" rx="2.1166" ry="2.1167"/>
   <ellipse cx="923.4" cy="261.94" rx="2.1166" ry="2.1167"/>
   <ellipse cx="899.58" cy="261.94" rx="2.1166" ry="2.1167"/>
   <ellipse cx="875.77" cy="261.94" rx="2.1166" ry="2.1167"/>
   <ellipse cx="862.54" cy="275.17" rx="2.1166" ry="2.1167"/>
   <ellipse cx="849.31" cy="288.4" rx="2.1166" ry="2.1167"/>
   <ellipse cx="836.08" cy="301.62" rx="2.1166" ry="2.1167"/>
   <ellipse cx="822.85" cy="314.85" rx="2.1166" ry="2.1167"/>
   <ellipse cx="801.69" cy="314.85" rx="2.1166" ry="2.1167"/>
   <ellipse cx="785.81" cy="330.73" rx="2.1166" ry="2.1167"/>
   <ellipse cx="777.88" cy="357.19" rx="2.1166" ry="2.1167"/>
   <ellipse cx="777.88" cy="378.35" rx="2.1166" ry="2.1167"/>
   <ellipse cx="759.35" cy="396.88" rx="2.1166" ry="2.1167"/>
   <ellipse cx="759.35" cy="428.62" rx="2.1166" ry="2.1167"/>
   <ellipse cx="740.83" cy="447.15" rx="2.1166" ry="2.1167"/>
   <ellipse cx="722.31" cy="447.15" rx="2.1166" ry="2.1167"/>
   <ellipse cx="703.79" cy="447.15" rx="2.1166" ry="2.1167"/>
   <ellipse cx="682.62" cy="447.15" rx="2.1166" ry="2.1167"/>
   <ellipse cx="661.46" cy="447.15" rx="2.1166" ry="2.1167"/>
   <ellipse cx="621.77" cy="431.27" rx="2.1166" ry="2.1167"/>
   <ellipse cx="605.9" cy="415.4" rx="2.1166" ry="2.1167"/>
   <ellipse cx="592.67" cy="402.17" rx="2.1166" ry="2.1167"/>
   <ellipse cx="574.15" cy="402.17" rx="2.1166" ry="2.1167"/>
   <ellipse cx="555.62" cy="402.17" rx="2.1166" ry="2.1167"/>
   <ellipse cx="537.1" cy="402.17" rx="2.1166" ry="2.1167"/>
   <ellipse cx="521.23" cy="386.29" rx="2.1166" ry="2.1167"/>
   <ellipse cx="521.23" cy="370.42" rx="2.1166" ry="2.1167"/>
   <ellipse cx="521.23" cy="354.54" rx="2.1166" ry="2.1167"/>
   <ellipse cx="521.23" cy="338.67" rx="2.1166" ry="2.1167"/>
   <ellipse cx="534.46" cy="325.44" rx="2.1166" ry="2.1167"/>
   <ellipse cx="547.69" cy="312.21" rx="2.1166" ry="2.1167"/>
   <ellipse cx="558.27" cy="301.62" rx="2.1166" ry="2.1167"/>
   <ellipse cx="574.15" cy="301.62" rx="2.1166" ry="2.1167"/>
   <ellipse cx="587.38" cy="288.4" rx="2.1166" ry="2.1167"/>
   <ellipse cx="587.38" cy="272.52" rx="2.1166" ry="2.1167"/>
   <ellipse cx="571.5" cy="272.52" rx="2.1166" ry="2.1167"/>
   <ellipse cx="558.27" cy="285.75" rx="2.1166" ry="2.1167"/>
  </g>
  <g stroke-linecap="round" stroke-linejoin="round">
   <ellipse cx="783.17" cy="399.52" rx="2.1167" ry="2.1167"/>
   <ellipse cx="805.66" cy="399.52" rx="2.1167" ry="2.1167"/>
   <ellipse cx="822.85" cy="383.65" rx="2.1167" ry="2.1167"/>
   <ellipse cx="849.31" cy="378.35" rx="2.1167" ry="2.1167"/>
   <ellipse cx="867.83" cy="378.35" rx="2.1167" ry="2.1167"/>
   <ellipse cx="881.06" cy="391.58" rx="2.1167" ry="2.1167"/>
   <ellipse cx="894.29" cy="404.81" rx="2.1167" ry="2.1167"/>
   <ellipse cx="912.81" cy="423.33" rx="2.1167" ry="2.1167"/>
   <ellipse cx="928.69" cy="439.21" rx="2.1167" ry="2.1167"/>
   <ellipse cx="957.79" cy="439.21" rx="2.1167" ry="2.1167"/>
   <ellipse cx="976.31" cy="439.21" rx="2.1167" ry="2.1167"/>
   <ellipse cx="994.83" cy="420.69" rx="2.1167" ry="2.1167"/>
   <ellipse cx="994.83" cy="402.17" rx="2.1167" ry="2.1167"/>
   <ellipse cx="994.83" cy="383.65" rx="2.1167" ry="2.1167"/>
   <ellipse cx="1013.4" cy="383.65" rx="2.1167" ry="2.1167"/>
   <ellipse cx="1030.6" cy="383.65" rx="2.1167" ry="2.1167"/>
   <ellipse cx="1047.8" cy="383.65" rx="2.1167" ry="2.1167"/>
   <ellipse cx="1066.3" cy="383.65" rx="2.1167" ry="2.1167"/>
   <ellipse cx="1079.5" cy="396.88" rx="2.1167" ry="2.1167"/>
   <ellipse cx="1092.7" cy="410.1" rx="2.1167" ry="2.1167"/>
   <ellipse cx="1106" cy="423.33" rx="2.1167" ry="2.1167"/>
   <ellipse cx="994.83" cy="457.73" rx="2.1167" ry="2.1167"/>
   <ellipse cx="994.83" cy="486.83" rx="2.1167" ry="2.1167"/>
   <ellipse cx="994.83" cy="510.65" rx="2.1167" ry="2.1167"/>
   <ellipse cx="1013.4" cy="529.17" rx="2.1167" ry="2.1167"/>
   <ellipse cx="1034.5" cy="529.17" rx="2.1167" ry="2.1167"/>
   <ellipse cx="1055.7" cy="529.17" rx="2.1167" ry="2.1167"/>
   <ellipse cx="1071.6" cy="513.29" rx="2.1167" ry="2.1167"/>
   <ellipse cx="759.35" cy="399.52" rx="2.1167" ry="2.1167"/>
   <ellipse cx="747.45" cy="387.61" rx="2.1167" ry="2.1167"/>
   <ellipse cx="735.54" cy="375.71" rx="2.1167" ry="2.1167"/>
   <ellipse cx="709.08" cy="349.25" rx="2.1167" ry="2.1167"/>
   <ellipse cx="674.69" cy="349.25" rx="2.1167" ry="2.1167"/>
   <ellipse cx="656.17" cy="359.83" rx="2.1167" ry="2.1167"/>
   <ellipse cx="640.29" cy="375.71" rx="2.1167" ry="2.1167"/>
   <ellipse cx="621.77" cy="394.23" rx="2.1167" ry="2.1167"/>
   <ellipse cx="603.25" cy="412.75" rx="2.1167" ry="2.1167"/>
   <ellipse cx="587.38" cy="428.62" rx="2.1167" ry="2.1167"/>
   <ellipse cx="571.5" cy="444.5" rx="2.1167" ry="2.1167"/>
   <ellipse cx="558.27" cy="457.73" rx="2.1167" ry="2.1167"/>
   <ellipse cx="542.4" cy="473.6" rx="2.1167" ry="2.1167"/>
   <ellipse cx="523.88" cy="455.08" rx="2.1167" ry="2.1167"/>
   <ellipse cx="505.35" cy="436.56" rx="2.1167" ry="2.1167"/>
   <ellipse cx="494.77" cy="425.98" rx="2.1167" ry="2.1167"/>
   <ellipse cx="478.9" cy="425.98" rx="2.1167" ry="2.1167"/>
   <ellipse cx="463.02" cy="425.98" rx="2.1167" ry="2.1167"/>
   <ellipse cx="447.15" cy="425.98" rx="2.1167" ry="2.1167"/>
   <ellipse cx="436.56" cy="415.4" rx="2.1167" ry="2.1167"/>
   <ellipse cx="436.56" cy="399.52" rx="2.1167" ry="2.1167"/>
   <ellipse cx="436.56" cy="383.65" rx="2.1167" ry="2.1167"/>
   <ellipse cx="423.33" cy="370.42" rx="2.1167" ry="2.1167"/>
   <ellipse cx="410.1" cy="357.19" rx="2.1167" ry="2.1167"/>
   <ellipse cx="391.58" cy="357.19" rx="2.1167" ry="2.1167"/>
   <ellipse cx="365.12" cy="357.19" rx="2.1167" ry="2.1167"/>
   <ellipse cx="365.12" cy="336.02" rx="2.1167" ry="2.1167"/>
   <ellipse cx="383.65" cy="317.5" rx="2.1167" ry="2.1167"/>
  </g>
  <g stroke-linecap="round" stroke-linejoin="round">
   <ellipse cx="883.71" cy="203.73" rx="2.1166" ry="2.1167"/>
   <ellipse cx="899.58" cy="187.85" rx="2.1166" ry="2.1167"/>
   <ellipse cx="923.4" cy="187.85" rx="2.1166" ry="2.1167"/>
   <ellipse cx="963.08" cy="187.85" rx="2.1166" ry="2.1167"/>
   <ellipse cx="981.6" cy="187.85" rx="2.1166" ry="2.1167"/>
   <ellipse cx="1000.1" cy="187.85" rx="2.1166" ry="2.1167"/>
   <ellipse cx="1018.6" cy="187.85" rx="2.1166" ry="2.1167"/>
   <ellipse cx="867.83" cy="219.6" rx="2.1166" ry="2.1167"/>
   <ellipse cx="851.96" cy="235.48" rx="2.1166" ry="2.1167"/>
   <ellipse cx="836.08" cy="251.35" rx="2.1166" ry="2.1167"/>
   <ellipse cx="820.21" cy="267.23" rx="2.1166" ry="2.1167"/>
   <ellipse cx="801.69" cy="285.75" rx="2.1166" ry="2.1167"/>
   <ellipse cx="780.52" cy="306.92" rx="2.1166" ry="2.1167"/>
   <ellipse cx="762" cy="325.44" rx="2.1166" ry="2.1167"/>
   <ellipse cx="751.42" cy="354.54" rx="2.1166" ry="2.1167"/>
   <ellipse cx="751.42" cy="383.65" rx="2.1166" ry="2.1167"/>
   <ellipse cx="735.54" cy="399.52" rx="2.1166" ry="2.1167"/>
   <ellipse cx="709.08" cy="399.52" rx="2.1166" ry="2.1167"/>
   <ellipse cx="685.27" cy="399.52" rx="2.1166" ry="2.1167"/>
   <ellipse cx="661.46" cy="399.52" rx="2.1166" ry="2.1167"/>
   <ellipse cx="661.46" cy="418.04" rx="2.1166" ry="2.1167"/>
   <ellipse cx="661.46" cy="444.5" rx="2.1166" ry="2.1167"/>
   <ellipse cx="666.75" cy="463.02" rx="2.1166" ry="2.1167"/>
   <ellipse cx="679.98" cy="476.25" rx="2.1166" ry="2.1167"/>
   <ellipse cx="679.98" cy="510.65" rx="2.1166" ry="2.1167"/>
   <ellipse cx="679.98" cy="534.46" rx="2.1166" ry="2.1167"/>
   <ellipse cx="679.98" cy="558.27" rx="2.1166" ry="2.1167"/>
   <ellipse cx="679.98" cy="582.08" rx="2.1166" ry="2.1167"/>
   <ellipse cx="679.98" cy="603.25" rx="2.1166" ry="2.1167"/>
   <ellipse cx="679.98" cy="624.42" rx="2.1166" ry="2.1167"/>
   <ellipse cx="679.98" cy="642.94" rx="2.1166" ry="2.1167"/>
   <ellipse cx="664.1" cy="658.81" rx="2.1166" ry="2.1167"/>
   <ellipse cx="648.23" cy="674.69" rx="2.1166" ry="2.1167"/>
   <ellipse cx="632.35" cy="690.56" rx="2.1166" ry="2.1167"/>
   <ellipse cx="619.12" cy="703.79" rx="2.1166" ry="2.1167"/>
   <ellipse cx="603.25" cy="719.67" rx="2.1166" ry="2.1167"/>
   <ellipse cx="587.38" cy="735.54" rx="2.1166" ry="2.1167"/>
   <ellipse cx="558.27" cy="764.65" rx="2.1166" ry="2.1167"/>
   <ellipse cx="542.4" cy="780.52" rx="2.1166" ry="2.1167"/>
   <ellipse cx="529.17" cy="793.75" rx="2.1166" ry="2.1167"/>
   <ellipse cx="513.29" cy="809.62" rx="2.1166" ry="2.1167"/>
   <ellipse cx="489.48" cy="809.62" rx="2.1166" ry="2.1167"/>
   <ellipse cx="465.67" cy="809.62" rx="2.1166" ry="2.1167"/>
   <ellipse cx="444.5" cy="809.62" rx="2.1166" ry="2.1167"/>
   <ellipse cx="428.62" cy="793.75" rx="2.1166" ry="2.1167"/>
   <ellipse cx="391.58" cy="793.75" rx="2.1166" ry="2.1167"/>
   <ellipse cx="351.9" cy="793.75" rx="2.1166" ry="2.1167"/>
   <ellipse cx="317.5" cy="793.75" rx="2.1166" ry="2.1167"/>
   <ellipse cx="301.62" cy="777.87" rx="2.1166" ry="2.1167"/>
   <ellipse cx="571.5" cy="751.42" rx="2.1166" ry="2.1167"/>
   <ellipse cx="944.56" cy="187.85" rx="2.1166" ry="2.1167"/>
  </g>
  <g stroke-linecap="round" stroke-linejoin="round">
   <circle cx="746.12" cy="412.75" r="2.1167"/>
   <circle cx="732.9" cy="399.52" r="2.1167"/>
   <circle cx="711.73" cy="378.35" r="2.1167"/>
   <circle cx="711.73" cy="351.9" r="2.1167"/>
   <circle cx="687.92" cy="328.08" r="2.1167"/>
   <circle cx="669.4" cy="328.08" r="2.1167"/>
   <circle cx="648.23" cy="328.08" r="2.1167"/>
   <circle cx="627.06" cy="328.08" r="2.1167"/>
   <circle cx="613.83" cy="314.85" r="2.1167"/>
   <circle cx="600.6" cy="301.62" r="2.1167"/>
   <circle cx="590.02" cy="291.04" r="2.1167"/>
   <circle cx="568.85" cy="269.88" r="2.1167"/>
   <circle cx="555.62" cy="256.65" r="2.1167"/>
   <circle cx="542.4" cy="243.42" r="2.1167"/>
   <circle cx="521.23" cy="243.42" r="2.1167"/>
   <circle cx="500.06" cy="243.42" r="2.1167"/>
   <circle cx="481.54" cy="261.94" r="2.1167"/>
   <circle cx="465.67" cy="277.81" r="2.1167"/>
   <circle cx="439.21" cy="277.81" r="2.1167"/>
   <circle cx="423.33" cy="261.94" r="2.1167"/>
   <circle cx="407.46" cy="246.06" r="2.1167"/>
   <circle cx="391.58" cy="230.19" r="2.1167"/>
   <circle cx="375.71" cy="214.31" r="2.1167"/>
   <circle cx="349.25" cy="214.31" r="2.1167"/>
   <circle cx="759.35" cy="425.98" r="2.1167"/>
   <circle cx="775.23" cy="441.85" r="2.1167"/>
   <circle cx="803.01" cy="469.64" r="2.1167"/>
   <circle cx="785.81" cy="486.83" r="2.1167"/>
   <circle cx="764.65" cy="489.48" r="2.1167"/>
   <circle cx="738.19" cy="515.94" r="2.1167"/>
   <circle cx="738.19" cy="558.27" r="2.1167"/>
   <circle cx="738.19" cy="595.31" r="2.1167"/>
   <circle cx="785.81" cy="595.31" r="2.1167"/>
   <circle cx="808.3" cy="595.31" r="2.1167"/>
   <circle cx="830.79" cy="595.31" r="2.1167"/>
   <circle cx="849.31" cy="595.31" r="2.1167"/>
   <circle cx="867.83" cy="595.31" r="2.1167"/>
   <circle cx="883.71" cy="611.19" r="2.1167"/>
   <circle cx="907.52" cy="635" r="2.1167"/>
   <circle cx="931.33" cy="611.19" r="2.1167"/>
   <circle cx="973.67" cy="568.85" r="2.1167"/>
   <circle cx="992.19" cy="550.33" r="2.1167"/>
   <circle cx="1010.7" cy="531.81" r="2.1167"/>
  </g>
  <g stroke-linecap="round" stroke-linejoin="round">
   <ellipse cx="640.29" cy="378.35" rx="2.1166" ry="2.1167"/>
   <ellipse cx="621.77" cy="378.35" rx="2.1166" ry="2.1167"/>
   <ellipse cx="603.25" cy="378.35" rx="2.1166" ry="2.1167"/>
   <ellipse cx="582.08" cy="378.35" rx="2.1166" ry="2.1167"/>
   <ellipse cx="560.92" cy="378.35" rx="2.1166" ry="2.1167"/>
   <ellipse cx="539.75" cy="399.52" rx="2.1166" ry="2.1167"/>
   <ellipse cx="518.58" cy="420.69" rx="2.1166" ry="2.1167"/>
   <ellipse cx="505.35" cy="433.92" rx="2.1166" ry="2.1167"/>
   <ellipse cx="505.35" cy="463.02" rx="2.1166" ry="2.1167"/>
   <ellipse cx="484.19" cy="468.31" rx="2.1166" ry="2.1167"/>
   <ellipse cx="457.73" cy="468.31" rx="2.1166" ry="2.1167"/>
   <ellipse cx="436.56" cy="447.15" rx="2.1166" ry="2.1167"/>
   <ellipse cx="436.56" cy="418.04" rx="2.1166" ry="2.1167"/>
   <ellipse cx="801.69" cy="357.19" rx="2.1166" ry="2.1167"/>
   <ellipse cx="822.85" cy="362.48" rx="2.1166" ry="2.1167"/>
   <ellipse cx="836.08" cy="375.71" rx="2.1166" ry="2.1167"/>
   <ellipse cx="857.25" cy="396.88" rx="2.1166" ry="2.1167"/>
   <ellipse cx="505.35" cy="489.48" rx="2.1166" ry="2.1167"/>
   <ellipse cx="505.35" cy="518.58" rx="2.1166" ry="2.1167"/>
   <ellipse cx="521.23" cy="534.46" rx="2.1166" ry="2.1167"/>
   <ellipse cx="537.1" cy="550.33" rx="2.1166" ry="2.1167"/>
   <ellipse cx="552.98" cy="566.21" rx="2.1166" ry="2.1167"/>
   <ellipse cx="568.85" cy="582.08" rx="2.1166" ry="2.1167"/>
   <ellipse cx="591.34" cy="582.08" rx="2.1166" ry="2.1167"/>
   <ellipse cx="613.83" cy="582.08" rx="2.1166" ry="2.1167"/>
   <ellipse cx="636.32" cy="582.08" rx="2.1166" ry="2.1167"/>
   <ellipse cx="660.14" cy="582.08" rx="2.1166" ry="2.1167"/>
   <ellipse cx="682.62" cy="582.08" rx="2.1166" ry="2.1167"/>
   <ellipse cx="717.02" cy="582.08" rx="2.1166" ry="2.1167"/>
   <ellipse cx="740.83" cy="558.27" rx="2.1166" ry="2.1167"/>
   <ellipse cx="785.81" cy="558.27" rx="2.1166" ry="2.1167"/>
   <ellipse cx="808.3" cy="558.27" rx="2.1166" ry="2.1167"/>
   <ellipse cx="830.79" cy="558.27" rx="2.1166" ry="2.1167"/>
   <ellipse cx="867.83" cy="558.27" rx="2.1166" ry="2.1167"/>
   <ellipse cx="902.23" cy="550.33" rx="2.1166" ry="2.1167"/>
   <ellipse cx="920.75" cy="531.81" rx="2.1166" ry="2.1167"/>
   <ellipse cx="939.27" cy="513.29" rx="2.1166" ry="2.1167"/>
   <ellipse cx="939.27" cy="481.54" rx="2.1166" ry="2.1167"/>
   <ellipse cx="923.4" cy="465.67" rx="2.1166" ry="2.1167"/>
   <ellipse cx="902.23" cy="465.67" rx="2.1166" ry="2.1167"/>
   <ellipse cx="889" cy="452.44" rx="2.1166" ry="2.1167"/>
   <ellipse cx="873.12" cy="436.56" rx="2.1166" ry="2.1167"/>
   <ellipse cx="857.25" cy="420.69" rx="2.1166" ry="2.1167"/>
   <ellipse cx="841.38" cy="404.81" rx="2.1166" ry="2.1167"/>
   <ellipse cx="822.85" cy="386.29" rx="2.1166" ry="2.1167"/>
   <ellipse cx="801.69" cy="378.35" rx="2.1166" ry="2.1167"/>
   <ellipse cx="780.52" cy="378.35" rx="2.1166" ry="2.1167"/>
   <ellipse cx="751.42" cy="378.35" rx="2.1166" ry="2.1167"/>
   <ellipse cx="732.9" cy="378.35" rx="2.1166" ry="2.1167"/>
   <ellipse cx="709.08" cy="378.35" rx="2.1166" ry="2.1167"/>
   <ellipse cx="682.62" cy="378.35" rx="2.1166" ry="2.1167"/>
   <ellipse cx="661.46" cy="378.35" rx="2.1166" ry="2.1167"/>
  </g>
  <g stroke-linecap="round" stroke-linejoin="round">
   <ellipse cx="690.56" cy="26.458" rx="2.1167" ry="2.1167"/>
   <ellipse cx="714.38" cy="26.458" rx="2.1167" ry="2.1167"/>
   <ellipse cx="739.51" cy="26.458" rx="2.1167" ry="2.1167"/>
   <ellipse cx="763.32" cy="26.458" rx="2.1167" ry="2.1167"/>
   <ellipse cx="787.14" cy="26.458" rx="2.1167" ry="2.1167"/>
   <ellipse cx="810.95" cy="26.458" rx="2.1167" ry="2.1167"/>
   <ellipse cx="834.76" cy="26.458" rx="2.1167" ry="2.1167"/>
   <ellipse cx="859.9" cy="26.458" rx="2.1167" ry="2.1167"/>
   <ellipse cx="883.71" cy="26.458" rx="2.1167" ry="2.1167"/>
   <ellipse cx="902.23" cy="44.979" rx="2.1167" ry="2.1167"/>
   <ellipse cx="902.23" cy="67.469" rx="2.1167" ry="2.1167"/>
   <ellipse cx="902.23" cy="89.958" rx="2.1167" ry="2.1167"/>
   <ellipse cx="902.23" cy="108.48" rx="2.1167" ry="2.1167"/>
   <ellipse cx="902.23" cy="127" rx="2.1167" ry="2.1167"/>
   <ellipse cx="902.23" cy="146.84" rx="2.1167" ry="2.1167"/>
   <ellipse cx="902.23" cy="166.69" rx="2.1167" ry="2.1167"/>
   <ellipse cx="902.23" cy="187.85" rx="2.1167" ry="2.1167"/>
   <ellipse cx="902.23" cy="206.38" rx="2.1167" ry="2.1167"/>
   <ellipse cx="902.23" cy="224.9" rx="2.1167" ry="2.1167"/>
   <ellipse cx="902.23" cy="243.42" rx="2.1167" ry="2.1167"/>
   <ellipse cx="902.23" cy="261.94" rx="2.1167" ry="2.1167"/>
   <ellipse cx="902.23" cy="283.1" rx="2.1167" ry="2.1167"/>
   <ellipse cx="886.35" cy="298.98" rx="2.1167" ry="2.1167"/>
   <ellipse cx="867.83" cy="317.5" rx="2.1167" ry="2.1167"/>
   <ellipse cx="849.31" cy="336.02" rx="2.1167" ry="2.1167"/>
   <ellipse cx="822.85" cy="354.54" rx="2.1167" ry="2.1167"/>
   <ellipse cx="801.69" cy="354.54" rx="2.1167" ry="2.1167"/>
   <ellipse cx="777.88" cy="354.54" rx="2.1167" ry="2.1167"/>
   <ellipse cx="754.06" cy="354.54" rx="2.1167" ry="2.1167"/>
   <ellipse cx="732.9" cy="354.54" rx="2.1167" ry="2.1167"/>
   <ellipse cx="709.08" cy="354.54" rx="2.1167" ry="2.1167"/>
   <ellipse cx="682.62" cy="354.54" rx="2.1167" ry="2.1167"/>
   <ellipse cx="658.81" cy="378.35" rx="2.1167" ry="2.1167"/>
   <ellipse cx="658.81" cy="399.52" rx="2.1167" ry="2.1167"/>
   <ellipse cx="658.81" cy="431.27" rx="2.1167" ry="2.1167"/>
   <ellipse cx="650.88" cy="460.38" rx="2.1167" ry="2.1167"/>
   <ellipse cx="587.38" cy="492.12" rx="2.1167" ry="2.1167"/>
   <ellipse cx="560.92" cy="492.12" rx="2.1167" ry="2.1167"/>
   <ellipse cx="545.04" cy="476.25" rx="2.1167" ry="2.1167"/>
   <ellipse cx="523.88" cy="497.42" rx="2.1167" ry="2.1167"/>
   <ellipse cx="505.35" cy="515.94" rx="2.1167" ry="2.1167"/>
   <ellipse cx="486.83" cy="534.46" rx="2.1167" ry="2.1167"/>
   <ellipse cx="463.02" cy="558.27" rx="2.1167" ry="2.1167"/>
   <ellipse cx="463.02" cy="584.73" rx="2.1167" ry="2.1167"/>
   <ellipse cx="463.02" cy="613.83" rx="2.1167" ry="2.1167"/>
   <ellipse cx="463.02" cy="645.58" rx="2.1167" ry="2.1167"/>
   <ellipse cx="431.27" cy="645.58" rx="2.1167" ry="2.1167"/>
   <ellipse cx="484.19" cy="666.75" rx="2.1167" ry="2.1167"/>
   <ellipse cx="505.35" cy="687.92" rx="2.1167" ry="2.1167"/>
   <ellipse cx="526.52" cy="709.08" rx="2.1167" ry="2.1167"/>
   <ellipse cx="547.69" cy="730.25" rx="2.1167" ry="2.1167"/>
   <ellipse cx="568.85" cy="751.42" rx="2.1167" ry="2.1167"/>
   <ellipse cx="590.02" cy="772.58" rx="2.1167" ry="2.1167"/>
   <ellipse cx="611.19" cy="793.75" rx="2.1167" ry="2.1167"/>
   <ellipse cx="632.35" cy="814.92" rx="2.1167" ry="2.1167"/>
   <ellipse cx="653.52" cy="836.08" rx="2.1167" ry="2.1167"/>
   <ellipse cx="674.69" cy="857.25" rx="2.1167" ry="2.1167"/>
   <ellipse cx="695.85" cy="878.42" rx="2.1167" ry="2.1167"/>
   <ellipse cx="717.02" cy="899.58" rx="2.1167" ry="2.1167"/>
   <ellipse cx="746.12" cy="928.69" rx="2.1167" ry="2.1167"/>
   <ellipse cx="717.02" cy="955.15" rx="2.1167" ry="2.1167"/>
   <ellipse cx="664.1" cy="976.31" rx="2.1167" ry="2.1167"/>
   <ellipse cx="695.85" cy="976.31" rx="2.1167" ry="2.1167"/>
   <ellipse cx="717.02" cy="927.36" rx="2.1167" ry="2.1167"/>
   <ellipse cx="632.35" cy="976.31" rx="2.1167" ry="2.1167"/>
   <ellipse cx="600.6" cy="976.31" rx="2.1167" ry="2.1167"/>
   <ellipse cx="568.85" cy="976.31" rx="2.1167" ry="2.1167"/>
   <ellipse cx="537.1" cy="976.31" rx="2.1167" ry="2.1167"/>
   <ellipse cx="505.35" cy="976.31" rx="2.1167" ry="2.1167"/>
   <ellipse cx="473.6" cy="976.31" rx="2.1167" ry="2.1167"/>
   <ellipse cx="441.85" cy="976.31" rx="2.1167" ry="2.1167"/>
   <ellipse cx="410.1" cy="976.31" rx="2.1167" ry="2.1167"/>
   <ellipse cx="378.35" cy="976.31" rx="2.1167" ry="2.1167"/>
   <ellipse cx="346.6" cy="976.31" rx="2.1167" ry="2.1167"/>
   <ellipse cx="314.85" cy="976.31" rx="2.1167" ry="2.1167"/>
   <ellipse cx="283.1" cy="976.31" rx="2.1167" ry="2.1167"/>
   <ellipse cx="251.35" cy="976.31" rx="2.1167" ry="2.1167"/>
   <ellipse cx="219.6" cy="976.31" rx="2.1167" ry="2.1167"/>
   <ellipse cx="187.85" cy="976.31" rx="2.1167" ry="2.1167"/>
   <ellipse cx="156.1" cy="976.31" rx="2.1167" ry="2.1167"/>
   <ellipse cx="464.34" cy="534.46" rx="2.1167" ry="2.1167"/>
   <ellipse cx="444.5" cy="534.46" rx="2.1167" ry="2.1167"/>
   <ellipse cx="424.66" cy="534.46" rx="2.1167" ry="2.1167"/>
   <ellipse cx="406.14" cy="534.46" rx="2.1167" ry="2.1167"/>
   <ellipse cx="386.29" cy="534.46" rx="2.1167" ry="2.1167"/>
   <ellipse cx="365.12" cy="534.46" rx="2.1167" ry="2.1167"/>
   <ellipse cx="343.96" cy="534.46" rx="2.1167" ry="2.1167"/>
   <ellipse cx="322.79" cy="534.46" rx="2.1167" ry="2.1167"/>
   <ellipse cx="301.62" cy="534.46" rx="2.1167" ry="2.1167"/>
   <ellipse cx="280.46" cy="534.46" rx="2.1167" ry="2.1167"/>
   <ellipse cx="259.29" cy="534.46" rx="2.1167" ry="2.1167"/>
   <ellipse cx="238.12" cy="534.46" rx="2.1167" ry="2.1167"/>
   <ellipse cx="222.25" cy="550.33" rx="2.1167" ry="2.1167"/>
   <ellipse cx="222.25" cy="568.85" rx="2.1167" ry="2.1167"/>
   <ellipse cx="209.02" cy="582.08" rx="2.1167" ry="2.1167"/>
   <ellipse cx="187.85" cy="582.08" rx="2.1167" ry="2.1167"/>
   <ellipse cx="164.04" cy="582.08" rx="2.1167" ry="2.1167"/>
   <ellipse cx="140.23" cy="582.08" rx="2.1167" ry="2.1167"/>
   <ellipse cx="116.42" cy="582.08" rx="2.1167" ry="2.1167"/>
   <ellipse cx="92.604" cy="582.08" rx="2.1167" ry="2.1167"/>
   <ellipse cx="79.375" cy="595.31" rx="2.1167" ry="2.1167"/>
  </g>
 </g>
 <text x="13.229164" y="26.458334" fill="#000000" fill-opacity=".19725" font-family="'Noto Sans Kr'" font-size="17.639px" font-weight="900" stroke-linecap="round" stroke-linejoin="round" stroke-width=".7" style="font-variant-caps:normal;font-variant-east-asian:normal;font-variant-ligatures:normal;font-variant-numeric:normal" xml:space="preserve"><tspan x="13.229164" y="26.458334" style="font-variant-caps:normal;font-variant-east-asian:normal;font-variant-ligatures:normal;font-variant-numeric:normal">SEOUL</tspan><tspan x="13.229164" y="48.506958" style="font-variant-caps:normal;font-variant-east-asian:normal;font-variant-ligatures:normal;font-variant-numeric:normal">METROPOLITAN</tspan><tspan x="13.229164" y="70.555588" style="font-variant-caps:normal;font-variant-east-asian:normal;font-variant-ligatures:normal;font-variant-numeric:normal">SUBWAY</tspan><tspan x="13.229164" y="92.60421" style="font-variant-caps:normal;font-variant-east-asian:normal;font-variant-ligatures:normal;font-variant-numeric:normal">ROUTE MAP</tspan></text>
 <text x="15.875" y="132.29167" fill="#000000" fill-opacity=".19725" font-family="'Noto Sans Kr'" font-size="17.639px" font-weight="900" stroke-linecap="round" stroke-linejoin="round" stroke-width=".7" style="font-variant-caps:normal;font-variant-east-asian:normal;font-variant-ligatures:normal;font-variant-numeric:normal" xml:space="preserve"><tspan x="15.875" y="132.29167" font-family="'Noto Sans Kr'" font-size="7.0556px" font-weight="900" stroke-width=".7" style="font-variant-caps:normal;font-variant-east-asian:normal;font-variant-ligatures:normal;font-variant-numeric:normal">Author: JAEU JEONG (wodndb@gmail.com)</tspan></text>
</svg>
