<?xml version="1.0" encoding="UTF-8" standalone="no"?>
<!-- Created with Inkscape (http://www.inkscape.org/) -->

<svg
   width="4000"
   height="3000"
   viewBox="0 0 1058.3333 793.74997"
   version="1.1"
   id="svg5"
   inkscape:version="1.2.2 (b0a84865, 2022-12-01)"
   sodipodi:docname="Metropolitan.svg"
   xmlns:inkscape="http://www.inkscape.org/namespaces/inkscape"
   xmlns:sodipodi="http://sodipodi.sourceforge.net/DTD/sodipodi-0.dtd"
   xmlns="http://www.w3.org/2000/svg"
   xmlns:svg="http://www.w3.org/2000/svg">
  <sodipodi:namedview
     id="namedview7"
     pagecolor="#ffffff"
     bordercolor="#000000"
     borderopacity="0.25"
     inkscape:showpageshadow="2"
     inkscape:pageopacity="0.0"
     inkscape:pagecheckerboard="0"
     inkscape:deskcolor="#d1d1d1"
     inkscape:document-units="mm"
     showgrid="false"
     inkscape:zoom="0.35508744"
     inkscape:cx="1782.6595"
     inkscape:cy="1203.9288"
     inkscape:window-width="1920"
     inkscape:window-height="1027"
     inkscape:window-x="0"
     inkscape:window-y="25"
     inkscape:window-maximized="1"
     inkscape:current-layer="layer6">
    <inkscape:grid
       type="xygrid"
       id="grid66" />
  </sodipodi:namedview>
  <defs
     id="defs2">
    <marker
       style="overflow:visible"
       id="marker5233"
       refX="0"
       refY="0"
       orient="auto"
       inkscape:stockid="Dot"
       markerWidth="5.6666665"
       markerHeight="5.6666665"
       viewBox="0 0 5.6666667 5.6666667"
       inkscape:isstock="true"
       inkscape:collect="always"
       preserveAspectRatio="xMidYMid">
      <path
         transform="scale(0.5)"
         style="fill:context-stroke;fill-rule:evenodd;stroke:context-stroke;stroke-width:1pt"
         d="M 5,0 C 5,2.76 2.76,5 0,5 -2.76,5 -5,2.76 -5,0 c 0,-2.76 2.3,-5 5,-5 2.76,0 5,2.24 5,5 z"
         id="path5231"
         sodipodi:nodetypes="sssss" />
    </marker>
    <marker
       style="overflow:visible"
       id="marker5179"
       refX="0"
       refY="0"
       orient="auto"
       inkscape:stockid="Dot"
       markerWidth="5.6666665"
       markerHeight="5.6666665"
       viewBox="0 0 5.6666667 5.6666667"
       inkscape:isstock="true"
       inkscape:collect="always"
       preserveAspectRatio="xMidYMid">
      <path
         transform="scale(0.5)"
         style="fill:context-stroke;fill-rule:evenodd;stroke:context-stroke;stroke-width:1pt"
         d="M 5,0 C 5,2.76 2.76,5 0,5 -2.76,5 -5,2.76 -5,0 c 0,-2.76 2.3,-5 5,-5 2.76,0 5,2.24 5,5 z"
         id="path5177"
         sodipodi:nodetypes="sssss" />
    </marker>
    <marker
       style="overflow:visible"
       id="Dot"
       refX="0"
       refY="0"
       orient="auto"
       inkscape:stockid="Dot"
       markerWidth="5.6666665"
       markerHeight="5.6666665"
       viewBox="0 0 5.6666667 5.6666667"
       inkscape:isstock="true"
       inkscape:collect="always"
       preserveAspectRatio="xMidYMid">
      <path
         transform="scale(0.5)"
         style="fill:context-stroke;fill-rule:evenodd;stroke:context-stroke;stroke-width:1pt"
         d="M 5,0 C 5,2.76 2.76,5 0,5 -2.76,5 -5,2.76 -5,0 c 0,-2.76 2.3,-5 5,-5 2.76,0 5,2.24 5,5 z"
         id="Dot1"
         sodipodi:nodetypes="sssss" />
    </marker>
  </defs>
  <g
     inkscape:groupmode="layer"
     id="layer2"
     inkscape:label="Line1"
     style="fill:none;stroke-width:1.00013;stroke-dasharray:none"
     transform="matrix(0.85822117,0,0,0.90155191,3.9091695,6.6257313)">
    <path
       style="fill:none;stroke:#0052a4;stroke-width:0.91428;stroke-dasharray:none;stroke-opacity:1;marker-start:url(#marker5233);marker-mid:url(#marker5233);marker-end:url(#Dot);paint-order:normal"
       d="m 170.58495,37.094922 603.41735,1.098157 -0.12942,230.215481 -207.48974,-0.46964 -0.44593,61.85541 2.31036,92.80753 -157.57577,0.56054 -91.71408,0.0103 m -0.97597,2.1867 -176.05794,-1.42961 m 176.26686,2.10156 0.72433,273.89997 703.4288,-4.35759"
       id="path6872"
       inkscape:label="Path"
       sodipodi:nodetypes="ccccccccccccc" />
  </g>
  <g
     inkscape:label="Line2"
     inkscape:groupmode="layer"
     id="layer1"
     transform="matrix(0.85822117,0,0,0.90155191,3.9091695,6.6257313)">
    <path
       style="display:inline;fill:none;fill-opacity:0;stroke:#00a84d;stroke-width:1.20936;stroke-dasharray:none;stroke-opacity:1;marker-start:url(#marker5179);marker-mid:url(#Dot);marker-end:url(#marker5233);paint-order:normal"
       d="m 453.85181,326.79219 309.89344,1.46103 53.75645,44.90913 -5.62612,117.88878 -46.32538,34.5033 -307.60003,-2.40884 -48.41215,-49.03319 1.11837,-94.61006 z"
       id="path1224"
       sodipodi:nodetypes="ccccccccc"
       inkscape:label="Path" />
    <path
       style="fill:none;fill-opacity:0;stroke:#00a84d;stroke-width:0.91428;stroke-dasharray:none;stroke-opacity:1;marker-start:url(#marker5233);marker-mid:url(#marker5179);marker-end:url(#Dot);paint-order:normal"
       d="m 365.15351,376.99699 43.99214,45.3184"
       id="path12795"
       sodipodi:nodetypes="cc" />
    <path
       style="fill:none;fill-opacity:0;stroke:#00a84d;stroke-width:0.91428;stroke-dasharray:none;stroke-opacity:1;marker-start:url(#marker5233);marker-mid:url(#marker5179);marker-end:url(#Dot);paint-order:normal"
       d="m 816.43342,370.80416 -1.23235,-65.78543 -40.25686,-35.99579"
       id="path12797"
       sodipodi:nodetypes="ccc" />
  </g>
  <g
     inkscape:groupmode="layer"
     id="layer4"
     inkscape:label="Line3"
     transform="matrix(0.85822117,0,0,0.90155191,3.9091695,6.6257313)">
    <path
       style="fill:none;fill-opacity:0;stroke:#ef7c1c;stroke-width:0.914271;stroke-dasharray:none;stroke-opacity:1;marker-start:url(#marker5233);marker-mid:url(#marker5179);marker-end:url(#Dot);paint-order:normal"
       d="m 175.15939,141.56414 449.98335,1.14412 -0.0833,126.70062 0.16412,59.96512 0.0599,194.67525 75.91949,69.07988 262.82108,-2.55766"
       id="path9155"
       inkscape:label="Path"
       sodipodi:nodetypes="ccccccc" />
  </g>
  <g
     inkscape:groupmode="layer"
     id="layer5"
     inkscape:label="Line4"
     transform="matrix(0.85822117,0,0,0.90155191,3.9091695,6.6257313)">
    <path
       style="fill:none;fill-opacity:0;stroke:#00a4e3;stroke-width:0.914271;stroke-dasharray:none;stroke-opacity:1;marker-start:url(#marker5233);marker-mid:url(#Dot);marker-end:url(#Dot);paint-order:normal"
       d="m 1003.6987,108.77981 1.22,50.08032 -231.0322,-2.28504 -89.98291,112.60501 0.36861,58.24449 -0.15717,96.73704 -57.70133,-1.78029 -58.46659,0.16715 0.0934,99.7058 -59.21417,79.31764 -190.57325,4.26592 -137.00086,72.46406"
       id="path10311"
       inkscape:label="Path"
       sodipodi:nodetypes="cccccccccccc" />
  </g>
  <g
     inkscape:groupmode="layer"
     id="layer6"
     inkscape:label="Line5"
     transform="matrix(0.85822117,0,0,0.90155191,3.9091695,6.6257313)">
    <path
       style="fill:none;fill-opacity:0;stroke:#996cac;stroke-width:0.914161;stroke-dasharray:none;stroke-opacity:1;marker-start:url(#marker5233);marker-mid:url(#marker5179);marker-end:url(#Dot)"
       d="m 286.87083,272.29592 77.77654,105.20557 45.81796,0.82942 44.21965,2.04557 54.03232,42.31246 3.69034,-93.42004 -3.08392,-113.75482 53.1042,-1.53829 61.77412,55.20891 61.49144,61.49427 47.96393,49.36692 54.98529,-30.15928 73.9856,3.80322 87.1778,-0.88388 -0.96606,63.24828 103.22226,-0.14657 v -56.4369 h 48.3037"
       id="path390"
       sodipodi:nodetypes="cccccccccccccccccc" />
    <path
       style="fill:none;fill-opacity:0;stroke:#996cac;stroke-width:0.914161;stroke-dasharray:none;stroke-opacity:1;marker-start:url(#marker5179);marker-mid:url(#marker5179);marker-end:url(#Dot)"
       d="m 1052.4894,415.07153 1.5147,50.34551 h 48.47"
       id="path3365"
       sodipodi:nodetypes="ccc" />
  </g>
  <g
     inkscape:groupmode="layer"
     id="layer7"
     inkscape:label="Line6"
     transform="matrix(0.85822117,0,0,0.90155191,3.9091695,6.6257313)">
    <path
       style="fill:none;fill-opacity:0;stroke:#cd7c2f;stroke-width:0.914161;stroke-dasharray:none;stroke-opacity:1;marker-start:url(#marker5233);marker-mid:url(#marker5179);marker-end:url(#Dot)"
       d="m 455.56974,161.94976 46.41968,0.0637 -2.27201,-44.24301 -47.17706,-2.35211 0.20299,211.68319 55.69202,53.26941 56.80076,-3.05126 62.10215,0.7628 h 59.07278 l 48.46998,2.28845 -2.27204,-51.10831 -1.51468,-61.02484 43.16857,-54.15954 234.77652,1.52562"
       id="path3601"
       sodipodi:nodetypes="cccccccccccccc" />
  </g>
  <g
     inkscape:groupmode="layer"
     id="layer8"
     inkscape:label="Line7"
     transform="matrix(0.85822117,0,0,0.90155191,3.9091695,6.6257313)">
    <path
       style="fill:none;fill-opacity:0;stroke:#747f00;stroke-width:1.13685;stroke-dasharray:none;stroke-opacity:1;marker-start:url(#marker5233);marker-mid:url(#marker5179);marker-end:url(#Dot)"
       d="m 714.32815,104.2266 59.03869,-0.82649 92.03094,0.82649 -1.73643,52.06873 -0.86823,58.68063 0.86823,138.84995 0.86822,71.07794 -49.48833,-0.82649 -78.68156,-0.86449 -52.41912,52.10672 -59.90692,-0.82649 h -56.43406 l -156.27894,10e-6 -92.89913,0.82648 -60.77515,0.82648 -0.86822,-51.24225 -49.48833,-67.77199 -70.32552,-0.82648"
       id="path396"
       sodipodi:nodetypes="cccccccccccccccccc" />
  </g>
  <g
     inkscape:groupmode="layer"
     id="layer9"
     inkscape:label="Line8"
     transform="matrix(0.85822117,0,0,0.90155191,3.9091695,6.6257313)" />
  <g
     inkscape:groupmode="layer"
     id="layer10"
     inkscape:label="Line9"
     transform="matrix(0.85822117,0,0,0.90155191,3.9091695,6.6257313)" />
  <g
     inkscape:groupmode="layer"
     id="layer11"
     inkscape:label="GJ"
     transform="matrix(0.85822117,0,0,0.90155191,3.9091695,6.6257313)" />
  <g
     inkscape:groupmode="layer"
     id="layer12"
     inkscape:label="SIB"
     transform="matrix(0.85822117,0,0,0.90155191,3.9091695,6.6257313)" />
  <g
     inkscape:groupmode="layer"
     id="layer13"
     inkscape:label="GC"
     transform="matrix(0.85822117,0,0,0.90155191,3.9091695,6.6257313)" />
  <g
     inkscape:groupmode="layer"
     id="layer14"
     inkscape:label="SB"
     transform="matrix(0.85822117,0,0,0.90155191,3.9091695,6.6257313)" />
  <g
     inkscape:groupmode="layer"
     id="layer15"
     inkscape:label="IncheonLine1"
     transform="matrix(0.85822117,0,0,0.90155191,3.9091695,6.6257313)" />
  <g
     inkscape:groupmode="layer"
     id="layer16"
     inkscape:label="IncheonLine2"
     transform="matrix(0.85822117,0,0,0.90155191,3.9091695,6.6257313)" />
  <g
     inkscape:groupmode="layer"
     id="layer17"
     inkscape:label="GG"
     transform="matrix(0.85822117,0,0,0.90155191,3.9091695,6.6257313)" />
  <g
     inkscape:groupmode="layer"
     id="layer18"
     inkscape:label="U"
     transform="matrix(0.85822117,0,0,0.90155191,3.9091695,6.6257313)" />
  <g
     inkscape:groupmode="layer"
     id="layer19"
     inkscape:label="UI"
     transform="matrix(0.85822117,0,0,0.90155191,3.9091695,6.6257313)" />
  <g
     inkscape:groupmode="layer"
     id="layer20"
     inkscape:label="SL"
     transform="matrix(0.85822117,0,0,0.90155191,3.9091695,6.6257313)" />
  <g
     inkscape:groupmode="layer"
     id="layer21"
     inkscape:label="SH"
     transform="matrix(0.85822117,0,0,0.90155191,3.9091695,6.6257313)" />
  <g
     inkscape:groupmode="layer"
     id="layer22"
     inkscape:label="IA"
     transform="matrix(0.85822117,0,0,0.90155191,3.9091695,6.6257313)" />
  <g
     inkscape:groupmode="layer"
     id="layer23"
     inkscape:label="EV"
     transform="matrix(0.85822117,0,0,0.90155191,3.9091695,6.6257313)" />
</svg>
